<svg width="61" height="50" viewBox="0 0 61 50" fill="none" xmlns="http://www.w3.org/2000/svg">
<path d="M50.7412 27.8538C52.0319 27.8529 53.2269 28.0249 54.3242 28.3713C55.4428 28.696 56.4 29.2059 57.1963 29.8997C57.9926 30.5935 58.6179 31.4715 59.0703 32.5344C59.5227 33.5757 59.749 34.8237 59.75 36.2776C59.7509 37.6664 59.5584 38.8822 59.1719 39.9241C58.7854 40.9657 58.2366 41.8443 57.5273 42.5608C56.8179 43.2556 55.958 43.7773 54.9473 44.1252C53.958 44.4731 52.8501 44.6478 51.624 44.6487C50.699 44.6493 49.8381 44.5084 49.042 44.2268L49.0459 49.6301C48.8308 49.6954 48.4859 49.761 48.0127 49.8264C47.5397 49.9135 47.056 49.9569 46.5615 49.9573C46.0883 49.9576 45.6577 49.9254 45.2705 49.8606C44.9048 49.7957 44.5923 49.6661 44.334 49.4709C44.0758 49.2758 43.8822 49.0045 43.7529 48.6575C43.6237 48.3321 43.5589 47.8981 43.5586 47.3557L43.5488 31.7317C43.5485 31.1459 43.666 30.6681 43.9023 30.2991C44.1602 29.9301 44.5046 29.5934 44.9346 29.2893C45.601 28.855 46.4289 28.5074 47.418 28.2463C48.4072 27.9853 49.5152 27.8546 50.7412 27.8538ZM9.17871 27.8342C11.9903 27.8332 13.1741 28.1126 14.0059 28.6711C14.8373 29.2296 15.2533 29.9498 15.2539 30.8313C15.2542 31.2398 15.1584 31.6268 14.9668 31.9924C14.7751 32.3366 14.5516 32.6385 14.2959 32.8967C13.9334 32.7249 13.4961 32.5635 12.9844 32.4133C12.4727 32.2417 11.9182 32.1561 11.3213 32.1565C10.7881 32.1569 8.99992 32.2429 8.50976 32.4153C8.04087 32.5876 7.37974 32.8464 7.01757 33.1907C6.67671 33.5135 6.27729 33.9225 6.06445 34.4172C5.85162 34.912 5.74566 35.4928 5.74609 36.1594C5.74701 37.4925 6.24281 38.4924 6.98925 39.1584C7.75716 39.8246 10.2077 40.1572 11.2949 40.1565C11.9343 40.156 12.4882 40.0798 12.957 39.929C13.4259 39.7781 13.8418 39.6169 14.2041 39.4446C14.6305 39.7453 14.9506 40.0783 15.1641 40.4436C15.3774 40.7874 15.484 41.207 15.4844 41.7014C15.4849 42.583 15.0701 43.2717 14.2393 43.7668C13.4081 44.2405 12.2565 44.4777 9.50879 44.4788C8.1658 44.4797 6.58253 44.2869 5.49511 43.9006C4.4076 43.4928 3.34589 42.9349 2.55664 42.2258C1.78881 41.4953 1.06862 40.6248 0.641598 39.6145C0.214601 38.6041 0.000816621 37.4857 -3.8147e-06 36.26C-0.000919689 34.8409 0.222033 33.604 0.668941 32.55C1.13721 31.4746 1.88849 30.5922 2.67675 29.9036C3.46507 29.2149 4.49357 28.6976 5.5166 28.3528C6.56099 28.008 8.0275 27.835 9.17871 27.8342ZM20.0127 22.6663C20.4859 22.6659 20.9058 22.6991 21.2715 22.7639C21.6587 22.8287 21.982 22.9584 22.2402 23.1536C22.4984 23.3487 22.692 23.62 22.8213 23.967C22.972 24.2924 23.0475 24.7264 23.0478 25.2688L23.0498 28.4583C23.3294 28.3496 23.7494 28.2304 24.3086 28.0999C24.8892 27.9476 25.5236 27.8708 26.2119 27.8704C28.3416 27.8689 29.9987 28.4102 31.1826 29.4944C32.3878 30.5568 32.9907 32.1513 32.9922 34.2776L32.999 44.1409C32.784 44.2061 32.4398 44.2708 31.9668 44.3362C31.5152 44.4016 31.0416 44.4345 30.5469 44.4348C30.0736 44.4351 29.6431 44.403 29.2559 44.3381C28.8901 44.2733 28.5776 44.1436 28.3193 43.9485C28.0613 43.7535 27.8568 43.4933 27.7061 43.1682C27.5768 42.8211 27.5121 42.3757 27.5117 41.8333L27.5068 34.6077C27.5063 33.718 27.2801 33.0991 26.8281 32.7522C26.3978 32.3838 25.8599 32.2001 25.2148 32.2004C24.7846 32.2007 24.3754 32.2548 23.9883 32.3635C23.6011 32.4723 23.2893 32.6031 23.0527 32.7551L23.0605 44.1477C22.8455 44.2129 22.5006 44.2786 22.0273 44.344C21.5759 44.4093 21.1029 44.4423 20.6084 44.4426C20.1351 44.4429 19.7046 44.4098 19.3174 44.345C18.9516 44.2801 18.6391 44.1504 18.3809 43.9553C18.1228 43.7603 17.9183 43.5002 17.7676 43.175C17.6383 42.8279 17.5736 42.3826 17.5732 41.8401L17.5605 22.9612C17.7971 22.9176 18.142 22.8635 18.5937 22.7981C19.0667 22.711 19.5397 22.6666 20.0127 22.6663ZM37.9893 28.2854C38.4622 28.2851 38.8815 28.3173 39.2471 28.3821C39.6343 28.4469 39.9576 28.5766 40.2158 28.7717C40.474 28.9668 40.6676 29.2382 40.7969 29.5852C40.9476 29.9105 41.0231 30.3446 41.0234 30.887L41.0322 44.135C40.7957 44.1786 40.4408 44.2327 39.9678 44.2981C39.5161 44.3852 39.0533 44.4296 38.5801 44.4299C38.1068 44.4303 37.6763 44.3981 37.2891 44.3333C36.9234 44.2684 36.6117 44.1377 36.3535 43.9426C36.0953 43.7475 35.89 43.4877 35.7393 43.1624C35.61 42.8152 35.5453 42.3699 35.5449 41.8274L35.5371 28.5803C35.7737 28.5368 36.1179 28.4816 36.5693 28.4163C37.0424 28.3292 37.5161 28.2857 37.9893 28.2854ZM50.9385 32.1829C50.5297 32.1831 50.1634 32.2372 49.8408 32.3459C49.5183 32.433 49.2384 32.5418 49.0019 32.6721L49.0068 39.8333C49.2649 39.9632 49.5447 40.0709 49.8457 40.1575C50.1469 40.2441 50.4703 40.2876 50.8144 40.2874C53.0301 40.2858 54.1375 38.9505 54.1357 36.2815C54.1348 34.8927 53.8537 33.862 53.2939 33.1897C52.7558 32.5176 51.9707 32.1822 50.9385 32.1829ZM38.2744 21.0266C39.1779 21.026 39.8993 21.3075 40.4375 21.8713C40.997 22.4351 41.2768 23.1298 41.2773 23.9543C41.2778 24.7788 40.9983 25.4729 40.4394 26.0374C39.902 26.6019 39.1818 26.8854 38.2783 26.886C37.3751 26.8866 36.6436 26.6048 36.084 26.0413C35.5458 25.4775 35.2759 24.7828 35.2754 23.9583C35.2749 23.1337 35.5436 22.4388 36.0811 21.8743C36.64 21.3098 37.3711 21.0273 38.2744 21.0266ZM28.1338 9.31177C28.607 9.31144 29.0269 9.34361 29.3926 9.40845C29.7796 9.4733 30.1022 9.60306 30.3603 9.79809C30.6186 9.99321 30.8121 10.2645 30.9414 10.6116C31.0922 10.937 31.1686 11.3709 31.1689 11.9133L31.1728 18.9114C31.1734 19.8009 31.389 20.441 31.8193 20.8313C32.2498 21.1999 32.874 21.3836 33.6914 21.3831C34.1862 21.3827 34.5846 21.3392 34.8857 21.2522C34.9711 21.2292 35.0511 21.2059 35.126 21.1829C34.4719 21.9285 34.1459 22.8327 34.1465 23.8948C34.1469 24.554 34.2729 25.1527 34.5254 25.6897C34.2432 25.7048 33.9554 25.712 33.6621 25.7122C32.5005 25.713 31.4243 25.5842 30.4346 25.3245C29.4665 25.0647 28.6272 24.6633 27.917 24.1213C27.2069 23.5794 26.6582 22.8852 26.2705 22.0393C25.8828 21.1716 25.6883 20.1304 25.6875 18.9153L25.6816 9.60571C25.8967 9.54049 26.2301 9.47578 26.6816 9.4104C27.1549 9.34497 27.639 9.31211 28.1338 9.31177ZM51.4541 8.87231C52.5942 8.87152 53.6275 9.04431 54.5527 9.39087C55.4994 9.7374 56.3064 10.2144 56.9736 10.8215C57.6623 11.4286 58.1894 12.1553 58.5557 13.0012C58.9434 13.8472 59.138 14.7696 59.1387 15.7678C59.1391 16.5055 58.9348 17.0694 58.5264 17.4602C58.118 17.851 57.5485 18.1012 56.8174 18.2102L48.8477 19.4202C49.0847 20.1361 49.5691 20.6787 50.3008 21.0471C51.0324 21.3937 51.8719 21.5663 52.8184 21.5657C53.7002 21.565 54.5286 21.456 55.3027 21.2385C56.0984 20.9993 56.7438 20.7272 57.2383 20.4231C57.5825 20.6398 57.8725 20.9439 58.1094 21.3342C58.3462 21.7245 58.4655 22.1367 58.4658 22.5706C58.4664 23.547 58.0145 24.2751 57.1113 24.7532C56.4233 25.1224 55.6492 25.3724 54.7891 25.5032C53.9288 25.634 53.122 25.6999 52.3691 25.7004C51.1001 25.7013 49.9166 25.5282 48.8193 25.1819C47.7435 24.8137 46.7964 24.2714 45.9785 23.5559C45.1821 22.8404 44.5472 21.9403 44.0732 20.8557C43.6208 19.7711 43.3935 18.5019 43.3926 17.0481C43.3917 15.6159 43.6173 14.3896 44.0684 13.3694C44.5409 12.3276 45.1529 11.4808 45.9053 10.8293C46.6578 10.1561 47.5185 9.66702 48.4863 9.36255C49.454 9.03646 50.4432 8.87305 51.4541 8.87231ZM2.49609 3.66626C2.94779 3.66594 3.34818 3.69714 3.69726 3.75903C4.0668 3.8209 4.37462 3.94492 4.62109 4.1311C4.86759 4.31733 5.05335 4.57618 5.17675 4.90747C5.30002 5.218 5.36197 5.63213 5.3623 6.14966L5.36425 10.0813C5.87723 9.87393 6.36002 9.72888 6.81152 9.64575C7.28349 9.56264 7.79651 9.52115 8.35058 9.52075C9.33611 9.52007 10.2712 9.69564 11.1543 10.0471C12.037 10.3985 12.8174 10.9152 13.4951 11.5979C14.173 12.2601 14.7079 13.0885 15.0986 14.0823C15.4894 15.0761 15.6847 16.2257 15.6855 17.5305C15.6864 18.8767 15.4822 20.0574 15.0723 21.0725C14.6829 22.0668 14.1292 22.8956 13.4111 23.5588C12.6929 24.2221 11.8096 24.7304 10.7627 25.0833C9.73642 25.4153 8.597 25.5814 7.34472 25.5823C5.98983 25.5832 4.84009 25.4188 3.8955 25.0881C2.95088 24.7781 2.1495 24.3853 1.49218 23.9094C0.588453 23.2681 0.136482 22.4398 0.135738 21.425L0.124996 3.97876C0.330282 3.91649 0.658762 3.85369 1.11035 3.79126C1.56195 3.70812 2.0239 3.66659 2.49609 3.66626ZM20.0332 3.54809C20.5062 3.54779 20.9254 3.57998 21.291 3.64477C21.6783 3.7096 22.0015 3.8393 22.2598 4.03442C22.518 4.22952 22.7115 4.50086 22.8408 4.8479C22.9916 5.17325 23.067 5.60725 23.0674 6.14966L23.0781 22.178C22.4053 21.5993 21.4056 21.2933 20.1523 21.2942C19.1963 21.2949 18.3119 21.3728 17.5918 21.467L17.5811 3.84302C17.8176 3.79946 18.1618 3.74433 18.6133 3.67895C19.0864 3.59186 19.56 3.54842 20.0332 3.54809ZM7.36816 13.6526C6.95752 13.6529 6.59796 13.6945 6.29004 13.7776C6.00269 13.8606 5.6848 13.9857 5.33593 14.1516L5.33984 20.9241C5.56568 21.0688 5.83275 21.1928 6.14062 21.2961C6.46908 21.3787 6.86975 21.4205 7.34179 21.4202C8.28622 21.4195 9.01544 21.0977 9.52832 20.4553C10.0617 19.7922 10.328 18.8185 10.3271 17.5344C10.3263 16.2296 10.0587 15.2562 9.52441 14.6145C8.9902 13.9729 8.27145 13.652 7.36816 13.6526ZM38.0723 9.30395C38.5455 9.30363 38.9653 9.33677 39.3311 9.40161C39.7181 9.46646 40.0407 9.59622 40.2988 9.79126C40.5571 9.98638 40.7506 10.2576 40.8799 10.6047C41.0307 10.9301 41.1071 11.364 41.1074 11.9065L41.1133 20.9788C40.3876 20.258 39.428 19.8979 38.2353 19.8987C37.2002 19.8994 36.3304 20.1714 35.6269 20.7151L35.6201 9.59888C35.8352 9.53364 36.1685 9.46798 36.6201 9.40259C37.0933 9.33716 37.5775 9.3043 38.0723 9.30395ZM51.457 12.9084C50.9408 12.9088 50.4887 12.9963 50.1016 13.1702C49.7363 13.3439 49.4355 13.5718 49.1992 13.8538C48.9628 14.1143 48.7802 14.4186 48.6514 14.7659C48.544 15.0913 48.4793 15.4276 48.458 15.7747L53.9756 14.8596C53.9107 14.4257 53.6736 13.9915 53.2646 13.5579C52.8556 13.1242 52.2529 12.9079 51.457 12.9084Z" fill="white"/>
<path fill-rule="evenodd" clip-rule="evenodd" d="M61.0001 6.48691C60.9995 6.47452 60.9994 6.46226 60.9984 6.44974C60.9996 6.44473 60.9982 6.43941 60.9977 6.4339C60.9676 5.89307 60.7525 5.38149 60.3916 4.9921L60.3546 4.95336L60.3515 4.9525C60.3426 4.94515 60.3333 4.93763 60.3237 4.93103C60.2804 4.90134 60.2308 4.88318 60.1792 4.87815C60.1276 4.87309 60.0756 4.88134 60.0278 4.90211L59.995 4.91839C59.4364 5.197 58.9253 5.56918 58.4819 6.02021C58.0269 5.74758 57.6101 5.41073 57.2434 5.01915C57.1286 4.8965 57.0184 4.76879 56.9147 4.63362L56.9112 4.63266L56.9073 4.62422C56.602 4.00391 56.4046 3.33202 56.3242 2.63977C56.511 2.45077 56.6775 2.24099 56.8206 2.01417C56.9842 1.75594 57.1154 1.47686 57.2111 1.18379C57.2118 1.18188 57.2123 1.17989 57.2126 1.17785C57.2205 1.1546 57.2279 1.13122 57.2348 1.10773C57.2476 1.05552 57.2524 1.00156 57.2492 0.947799C57.242 0.817292 57.1892 0.694064 57.1008 0.601444C57.0783 0.577482 57.0535 0.555956 57.0268 0.537196C56.9501 0.505466 56.8729 0.475559 56.7949 0.446901C56.6926 0.40788 56.5894 0.371519 56.4852 0.337814C56.4842 0.33704 56.483 0.336693 56.4817 0.336836C56.2161 0.248549 55.9453 0.172819 55.6692 0.109651L55.6657 0.10867C55.5576 0.0839934 55.4488 0.0612539 55.3394 0.0404515C55.2615 0.0260141 55.1834 0.012491 55.1055 0C55.0723 0.00231279 55.0394 0.00803421 55.0073 0.0170815C54.8861 0.0508655 54.781 0.129985 54.712 0.239384C54.6834 0.284244 54.6617 0.333501 54.6478 0.385364C54.6419 0.408192 54.636 0.431021 54.6339 0.453913C54.6339 0.453913 54.6339 0.453916 54.6331 0.457114C54.5752 0.763165 54.5548 1.07567 54.5725 1.38709C54.5878 1.65781 54.6314 1.92599 54.7025 2.18684C54.3013 2.7443 53.8086 3.22307 53.2471 3.60083L53.2398 3.60564L53.2363 3.60465C53.0802 3.66473 52.9257 3.71844 52.7676 3.76428C52.2625 3.91229 51.7403 3.98677 51.2157 3.98562C51.0477 3.36346 50.7831 2.77421 50.4325 2.24131C50.4279 2.23366 50.4236 2.22659 50.4188 2.21987C50.3877 2.17381 50.3459 2.13679 50.2973 2.11232C50.2487 2.08786 50.1949 2.07674 50.141 2.08005L50.115 2.08257L50.1106 2.08136C50.0911 2.08617 50.0719 2.09155 50.0526 2.09741C50.049 2.09818 50.0456 2.09936 50.0423 2.10089C49.6877 2.20831 49.3654 2.40862 49.1059 2.68275C49.0055 2.78937 48.9153 2.9059 48.8365 3.03072C48.8352 3.03575 48.8309 3.03989 48.8283 3.04454C48.8275 3.04611 48.827 3.04783 48.827 3.04958C48.8213 3.05878 48.8159 3.06704 48.8107 3.07637C48.8026 3.09475 48.7991 3.11492 48.8003 3.13511C48.8005 3.13884 48.8009 3.1426 48.8017 3.14626C48.8036 3.15512 48.806 3.1641 48.8084 3.17309C48.8328 3.26799 48.8609 3.36184 48.8927 3.45457C49.0191 3.833 49.2042 4.18724 49.4404 4.50323C49.5759 4.68118 49.7269 4.84562 49.8916 4.99443C50.0115 5.90505 49.9269 6.83233 49.6444 7.70294C49.6432 7.70683 49.6422 7.71081 49.6414 7.71483C49.6392 7.72305 49.6385 7.73162 49.6391 7.74012C49.6407 7.76054 49.65 7.77946 49.665 7.79278C49.6799 7.80613 49.6992 7.81279 49.7188 7.81135L49.7227 7.81244L49.7352 7.80957C50.1824 7.70699 50.6363 7.63958 51.0931 7.60788C51.1215 7.60505 51.1495 7.60358 51.1777 7.60167C53.1859 7.47546 55.1782 8.04244 56.8469 9.21515C57.2291 9.48345 57.5916 9.78108 57.9314 10.1056L57.9411 10.1132C57.9574 10.1247 57.9774 10.129 57.9967 10.1253C58.016 10.1215 58.0331 10.11 58.0443 10.0931C58.0489 10.0862 58.0522 10.0786 58.0543 10.0705C58.0556 10.0666 58.0566 10.0626 58.0574 10.0586C58.2298 9.15726 58.6007 8.31007 59.1407 7.58393C59.3548 7.54118 59.5645 7.4774 59.767 7.39346C60.1238 7.24606 60.4551 7.03845 60.7473 6.77888C60.8196 6.71491 60.8888 6.64814 60.956 6.57834C60.9583 6.57637 60.9604 6.5742 60.9623 6.57181L60.9727 6.5605C60.9732 6.5597 60.9735 6.55875 60.9734 6.55776C60.976 6.55473 60.9785 6.55145 60.9806 6.54804C60.9919 6.52973 60.9987 6.50867 61.0001 6.48691ZM55.6834 1.73979L55.6846 1.73524C55.6846 1.73524 55.6843 1.73807 55.6834 1.73979Z" fill="#FF0960"/>
</svg>
