<svg width="78" height="40" viewBox="0 0 78 40" fill="none" xmlns="http://www.w3.org/2000/svg">
  <g clip-path="url(#clip0_8_619)">
    <path d="M30.351 7.00881C30.2723 7.69311 30.2193 8.37441 30.1921 9.05268C30.1648 9.73096 30.1512 10.4152 30.1512 11.1056C30.1512 11.7899 30.1633 12.4712 30.1875 13.1494C30.2118 13.8277 30.2677 14.509 30.3555 15.1933H27.7722C27.8673 14.5187 27.9249 13.8394 27.9447 13.1585C27.9659 12.4772 27.9765 11.7944 27.9765 11.1101C27.9765 10.4258 27.9644 9.7415 27.9402 9.0572C27.916 8.38194 27.8615 7.70065 27.7767 7.01334L30.351 7.00881Z" fill="white" />
    <path d="M33.5019 7.00881C34.2041 7.8348 34.9245 8.63818 35.663 9.41895C36.4015 10.1997 37.1582 10.9714 37.9331 11.7341C37.9179 10.9383 37.8892 10.1485 37.8468 9.36469C37.8044 8.58091 37.7318 7.79561 37.6289 7.00881H39.2043C39.1408 7.61172 39.0878 8.21463 39.0454 8.81754C39.003 9.42045 38.9818 10.0399 38.9818 10.676C38.9818 11.4327 38.9818 12.1863 38.9818 12.9369C38.9818 13.6875 38.9955 14.4412 39.0227 15.1978H37.8377C37.0477 14.3176 36.2562 13.4524 35.4632 12.6023C34.6702 11.7522 33.8545 10.9142 33.0161 10.0882C32.9919 10.3896 32.9797 10.6911 32.9797 10.9925C32.9797 11.701 32.9979 12.4033 33.0342 13.0997C33.0692 13.798 33.1419 14.4938 33.2522 15.1843H31.7357C31.8235 14.4517 31.881 13.7252 31.9083 13.0047C31.9355 12.2843 31.9491 11.5548 31.9491 10.8162C31.9491 10.1711 31.937 9.53501 31.9128 8.90798C31.8886 8.28096 31.8568 7.64489 31.8175 6.99977L33.5019 7.00881Z" fill="white" />
    <path d="M43.9942 7.00881C44.3665 7.00881 44.7357 7.01785 45.102 7.03594C45.4696 7.05643 45.8336 7.11863 46.1871 7.22134C46.9255 7.39686 47.5792 7.82393 48.0349 8.42867C48.4547 9.05834 48.6658 9.80312 48.6388 10.5584C48.6539 11.27 48.5097 11.9759 48.2165 12.6249C47.9501 13.195 47.5592 13.6986 47.0724 14.099C46.5698 14.5085 45.9913 14.8158 45.3699 15.0034C44.696 15.208 43.9949 15.3101 43.2905 15.3063C42.8728 15.3063 42.4187 15.2943 41.9284 15.2702C41.4787 15.2509 41.0332 15.175 40.6027 15.0441C40.6732 14.4723 40.7141 13.8973 40.7253 13.3213C40.7253 12.7485 40.7253 12.1697 40.7253 11.5849C40.7253 10.8222 40.7162 10.061 40.698 9.30138C40.6798 8.54171 40.6223 7.78054 40.5255 7.01786L43.9942 7.00881ZM42.9499 11.1644C42.9499 11.5412 42.9499 11.9346 42.9499 12.3446C42.9499 12.7545 42.9635 13.1479 42.9908 13.5248C42.9954 13.6524 43.0106 13.7794 43.0362 13.9046C43.0537 13.9934 43.0945 14.0761 43.1543 14.1442C43.2177 14.2067 43.2982 14.2492 43.3858 14.2663C43.5126 14.2931 43.6421 14.3052 43.7717 14.3025C44.1671 14.3149 44.5577 14.2145 44.8977 14.0131C45.2028 13.8231 45.4606 13.5664 45.6513 13.2625C45.8582 12.9442 46.0116 12.5945 46.1054 12.227C46.1992 11.8541 46.251 11.4719 46.2597 11.0875C46.2765 10.7005 46.2429 10.3129 46.1598 9.93443C46.0841 9.57764 45.9408 9.23849 45.7376 8.93511C45.5384 8.64337 45.2723 8.40311 44.9612 8.23423C44.6061 8.04844 44.209 7.95658 43.808 7.96745H42.9681L42.9499 11.1644Z" fill="white" />
    <path d="M52.0757 7.00881C51.997 7.69311 51.944 8.37441 51.9168 9.05268C51.8895 9.73096 51.8759 10.4152 51.8759 11.1056C51.8759 11.7899 51.888 12.4712 51.9122 13.1494C51.9364 13.8277 51.9924 14.509 52.0802 15.1933H49.4969C49.5912 14.5186 49.6488 13.8394 49.6694 13.1585C49.6875 12.4772 49.6966 11.7944 49.6966 11.1101C49.6966 10.4258 49.6845 9.7415 49.6603 9.0572C49.6361 8.38194 49.5816 7.70065 49.4969 7.01334L52.0757 7.00881Z" fill="white" />
    <path d="M57.8144 7.00882C58.1383 7.91318 58.4758 8.79494 58.8269 9.65408C59.178 10.5132 59.5443 11.3829 59.9256 12.2632C60.1466 12.7606 60.3751 13.2504 60.6112 13.7328L61.324 15.1888H58.5726C58.4213 14.7878 58.27 14.396 58.1186 14.0131C57.9673 13.6303 57.7993 13.2429 57.6147 12.851H55.045C54.9027 13.2369 54.7514 13.6227 54.5909 14.0086C54.4305 14.3945 54.3019 14.7878 54.205 15.1888H52.5706C53.2818 13.7569 53.9583 12.3159 54.6 10.8659C54.8754 10.2299 55.1478 9.59229 55.4172 8.95321C55.6866 8.31412 55.9348 7.66449 56.1618 7.0043L57.8144 7.00882ZM55.3446 11.8381H57.2515L56.2526 9.35564L55.3446 11.8381Z" fill="white" />
    <path d="M63.5623 7.00881C64.2645 7.8348 64.9849 8.63818 65.7234 9.41895C66.4619 10.1997 67.2186 10.9714 67.9935 11.7341C67.9783 10.9383 67.9496 10.1485 67.9072 9.36469C67.8648 8.58091 67.7922 7.79561 67.6893 7.00881H69.2647C69.2011 7.61172 69.1482 8.21463 69.1058 8.81754C69.0634 9.42045 69.0422 10.0399 69.0422 10.676C69.0422 11.4327 69.0422 12.1863 69.0422 12.9369C69.0422 13.6875 69.0559 14.4412 69.0831 15.1978H67.8981C67.1082 14.3176 66.3166 13.4524 65.5236 12.6023C64.7306 11.7522 63.9149 10.9142 63.0765 10.0882C63.0523 10.3896 63.0402 10.6911 63.0402 10.9925C63.0402 11.701 63.0583 12.4033 63.0946 13.0997C63.1293 13.798 63.202 14.4939 63.3126 15.1843H61.7689C61.8567 14.4517 61.9142 13.7252 61.9414 13.0047C61.9687 12.2843 61.9823 11.5548 61.9823 10.8162C61.9823 10.1711 61.9702 9.53501 61.946 8.90798C61.9218 8.28096 61.89 7.64489 61.8506 6.99977L63.5623 7.00881Z" fill="white" />
    <path d="M27.7631 25.5438C27.8509 24.8595 27.9053 24.1782 27.9265 23.4999C27.9477 22.8216 27.9598 22.1403 27.9629 21.456C27.9629 20.7627 27.9507 20.0784 27.9265 19.4031C27.9023 18.7279 27.8478 18.0466 27.7631 17.3593H31.2227C31.5621 17.3572 31.901 17.386 32.2352 17.4452C32.5334 17.4969 32.8187 17.606 33.0751 17.7662C33.3161 17.9209 33.5118 18.1361 33.6426 18.3902C33.7904 18.7054 33.8604 19.0511 33.8469 19.3986C33.8539 19.7713 33.7812 20.1413 33.6335 20.4838C33.5006 20.7869 33.3004 21.0559 33.0478 21.2706C32.7883 21.477 32.4906 21.6306 32.1716 21.7228C31.8158 21.8319 31.4451 21.8853 31.0729 21.8811C30.9775 21.8811 30.8822 21.8811 30.7868 21.8811C30.6915 21.8811 30.5962 21.8811 30.5008 21.8449L30.242 21.3385C30.4675 21.334 30.6879 21.2717 30.8822 21.1576C31.0432 21.0565 31.1759 20.9165 31.2681 20.7506C31.3616 20.5743 31.4231 20.383 31.4497 20.1854C31.481 19.9698 31.4961 19.7521 31.4951 19.5343C31.5321 19.191 31.4363 18.8465 31.2272 18.5711C30.9693 18.3711 30.6449 18.2758 30.3192 18.3043C30.2649 18.2987 30.2101 18.2987 30.1558 18.3043V22.3423C30.1558 22.8759 30.1709 23.4064 30.2012 23.934C30.2314 24.4615 30.2829 24.9891 30.3555 25.5166L27.7631 25.5438Z" fill="white" />
    <path d="M39.8853 22.2293C40.0004 22.3619 40.1123 22.5126 40.2213 22.6814C40.3303 22.8502 40.4332 23.001 40.53 23.1336L40.757 23.4863L41.4381 24.5173L42.1191 25.5483H39.2406C38.938 24.9454 38.6095 24.3515 38.2554 23.7667L37.9875 23.3145C37.8986 23.1558 37.7969 23.0046 37.6834 22.8623C37.6445 22.8084 37.6004 22.7584 37.5517 22.7131C37.5009 22.6739 37.4389 22.6517 37.3746 22.6498C37.3898 23.1381 37.4079 23.6205 37.4291 24.0968C37.4503 24.5731 37.4912 25.0509 37.5517 25.5302H34.9683C35.0561 24.8459 35.1121 24.1646 35.1363 23.4863C35.1605 22.8081 35.1727 22.1268 35.1727 21.4425C35.1727 20.7521 35.1605 20.0678 35.1363 19.3895C35.1121 18.7113 35.0561 18.03 34.9683 17.3457H38.6777C39.0044 17.3443 39.3303 17.3792 39.6492 17.4497C39.9516 17.5143 40.2394 17.6339 40.4983 17.8024C40.7477 17.9683 40.9532 18.1917 41.0976 18.4535C41.2572 18.7588 41.3354 19.0998 41.3246 19.4438C41.3588 20.0202 41.1777 20.5887 40.8161 21.04C40.4267 21.461 39.916 21.7517 39.3542 21.872L39.4677 21.9127L39.5675 21.9534C39.6884 22.023 39.7948 22.1151 39.8808 22.2247M37.3746 21.6007H37.638C37.8515 21.6067 38.062 21.5484 38.2418 21.4334C38.4069 21.3252 38.5438 21.1795 38.6413 21.0084C38.7427 20.8262 38.8147 20.6294 38.8547 20.425C38.8967 20.2166 38.918 20.0046 38.9183 19.792C38.9318 19.4456 38.8314 19.1042 38.6323 18.8198C38.5236 18.6871 38.3842 18.5827 38.226 18.5157C38.0678 18.4488 37.8955 18.4212 37.7242 18.4355H37.3928L37.3746 21.6007Z" fill="white" />
    <path d="M48.2347 25.5438C47.6505 25.5046 47.0648 25.4804 46.4776 25.4714H44.7342H44.1894C44.0169 25.4714 43.8398 25.4714 43.6582 25.494C43.4766 25.5166 43.3722 25.5211 43.2314 25.5302L42.8047 25.5528C42.8924 24.8685 42.9484 24.1872 42.9726 23.5089C42.9969 22.8307 43.009 22.1494 43.009 21.4651C43.009 20.7717 42.9969 20.0874 42.9726 19.4122C42.9484 18.7369 42.8924 18.0556 42.8047 17.3683C43.0498 17.3683 43.2904 17.3683 43.5265 17.3683C43.7626 17.3683 44.0033 17.3683 44.2484 17.3683H45.9873C46.5594 17.3683 47.139 17.3593 47.7262 17.3412V18.6435C47.3472 18.5353 46.96 18.4582 46.5684 18.4128C46.1765 18.3698 45.7824 18.3486 45.388 18.3495H45.1973V20.9044H45.2927H45.3971C45.73 20.9044 46.0842 20.8893 46.4595 20.8592C46.8348 20.829 47.1889 20.7928 47.5219 20.7506V21.9534C47.1889 21.9142 46.8575 21.8811 46.5276 21.8539C46.1977 21.8268 45.8617 21.8133 45.5197 21.8133H45.1973V22.9347C45.1973 23.1879 45.1973 23.4321 45.1973 23.6808C45.2058 23.9262 45.23 24.1709 45.27 24.4133C45.4957 24.4687 45.7276 24.496 45.9601 24.4947C46.358 24.4954 46.7555 24.4682 47.1496 24.4133L48.3164 24.246L48.2347 25.5438Z" fill="white" />
    <path d="M51.7442 17.3638L52.9519 20.1628C53.3545 21.0913 53.7964 22.0047 54.2777 22.903C54.7286 21.9986 55.1554 21.0943 55.558 20.1899C55.9605 19.2855 56.3283 18.351 56.6612 17.3864H58.559C58.6226 18.764 58.7285 20.1311 58.8768 21.4877C59.0252 22.8442 59.2234 24.2008 59.4716 25.5573H56.9109C56.9109 24.7223 56.8837 23.8963 56.8292 23.0794C56.7747 22.2624 56.6991 21.4364 56.6022 20.6014C56.1997 21.4123 55.8168 22.2308 55.4535 23.0568C55.0903 23.8827 54.7513 24.7117 54.4366 25.5438H52.8929C52.5297 24.7087 52.1665 23.8827 51.8033 23.0658C51.44 22.2489 51.0571 21.4304 50.6546 20.6104C50.591 21.2947 50.5426 21.9715 50.5093 22.6408C50.476 23.31 50.4578 23.9867 50.4548 24.671V25.1232C50.4548 25.2634 50.4548 25.4081 50.4548 25.5483H48.9157C49.058 24.9454 49.173 24.3289 49.2608 23.6988C49.3485 23.0688 49.4242 22.4493 49.4878 21.8404C49.5665 21.0928 49.6376 20.3497 49.7012 19.6111C49.7647 18.8726 49.7965 18.1189 49.7965 17.3502L51.7442 17.3638Z" fill="white" />
    <path d="M63.0629 17.3638C62.9842 18.0481 62.9312 18.7294 62.904 19.4076C62.8767 20.0859 62.8631 20.7702 62.8631 21.4605C62.8631 22.1448 62.8752 22.8261 62.8994 23.5044C62.9237 24.1827 62.9796 24.864 63.0674 25.5483H60.4841C60.5788 24.8736 60.6364 24.1944 60.6566 23.5135C60.6748 22.8322 60.6854 22.1494 60.6884 21.4651C60.6914 20.7808 60.6793 20.0965 60.6521 19.4122C60.6278 18.7369 60.5734 18.0556 60.4886 17.3683L63.0629 17.3638Z" fill="white" />
    <path d="M69.9049 25.5438C69.3207 25.5046 68.7351 25.4804 68.1479 25.4714H66.4044H65.8596C65.6871 25.4714 65.5055 25.4714 65.3284 25.494C65.1513 25.5166 65.0424 25.5211 64.9016 25.5302L64.4749 25.5528C64.5626 24.8685 64.6186 24.1872 64.6428 23.5089C64.6671 22.8307 64.6792 22.1494 64.6792 21.4651C64.6792 20.7717 64.6671 20.0874 64.6428 19.4122C64.6186 18.7369 64.5626 18.0556 64.4749 17.3683C64.72 17.3683 64.9607 17.3683 65.1968 17.3683C65.4328 17.3683 65.6735 17.3683 65.9186 17.3683H67.653C68.225 17.3683 68.8047 17.3593 69.3919 17.3412V18.6435C69.0129 18.5353 68.6257 18.4582 68.2341 18.4128C67.8421 18.3697 67.448 18.3486 67.0537 18.3495H66.863V20.9044H66.9583H67.0628C67.3957 20.9044 67.7498 20.8893 68.1252 20.8592C68.5005 20.829 68.8546 20.7928 69.1875 20.7506V21.9534C68.8546 21.9142 68.5232 21.8811 68.1932 21.8539C67.8633 21.8268 67.5274 21.8133 67.1853 21.8133H66.863V22.9347C66.863 23.1879 66.863 23.4321 66.863 23.6808C66.8711 23.9263 66.8953 24.171 66.9356 24.4133C67.1614 24.4687 67.3932 24.496 67.6257 24.4947C68.0237 24.4954 68.4212 24.4682 68.8152 24.4133L69.9821 24.246L69.9049 25.5438Z" fill="white" />
    <path d="M75.7753 22.2292C75.8903 22.3619 76.0023 22.5126 76.1113 22.6814C76.2202 22.8502 76.3231 23.001 76.42 23.1336L76.6425 23.4863L77.3235 24.5173L78.0045 25.5483H75.1261C74.8234 24.9454 74.495 24.3515 74.1409 23.7667L73.873 23.3145C73.7841 23.1558 73.6823 23.0046 73.5688 22.8623C73.5297 22.8086 73.4856 22.7586 73.4371 22.7131C73.3863 22.6739 73.3243 22.6517 73.2601 22.6498C73.2752 23.1381 73.2934 23.6205 73.3145 24.0968C73.3357 24.5731 73.3766 25.0509 73.4371 25.5302H70.8538C70.9415 24.8459 70.9976 24.1646 71.0218 23.4863C71.046 22.8081 71.0581 22.1268 71.0581 21.4425C71.0581 20.7521 71.046 20.0678 71.0218 19.3895C70.9976 18.7113 70.9415 18.03 70.8538 17.3457H74.5631C74.8898 17.3444 75.2157 17.3793 75.5347 17.4497C75.837 17.5143 76.1249 17.6338 76.3837 17.8024C76.633 17.9685 76.8385 18.1918 76.983 18.4535C77.1422 18.7589 77.2204 19.0998 77.21 19.4438C77.2391 20.0225 77.0514 20.5913 76.6833 21.04C76.294 21.461 75.7833 21.7517 75.2214 21.872L75.3349 21.9127L75.4348 21.9534C75.5556 22.0232 75.6619 22.1153 75.7481 22.2247M73.2419 21.6007H73.5052C73.7188 21.6064 73.9292 21.5481 74.1091 21.4334C74.274 21.3251 74.4109 21.1794 74.5086 21.0083C74.61 20.8262 74.6819 20.6294 74.722 20.425C74.764 20.2166 74.7853 20.0046 74.7856 19.792C74.7991 19.4456 74.6986 19.1042 74.4995 18.8198C74.3909 18.6871 74.2515 18.5827 74.0933 18.5157C73.935 18.4488 73.7628 18.4212 73.5915 18.4354H73.2601L73.2419 21.6007Z" fill="white" />
    <path d="M33.1931 35.9032C32.609 35.864 32.0233 35.8399 31.4361 35.8309H29.6927H29.1478C28.9662 35.8309 28.7846 35.8309 28.603 35.8535L28.1808 35.8897L27.7586 35.9123C27.8463 35.228 27.9008 34.5467 27.922 33.8684C27.9432 33.1901 27.9553 32.5089 27.9583 31.8246C27.9583 31.1312 27.9462 30.4469 27.922 29.7716C27.8978 29.0964 27.8433 28.4151 27.7586 27.7278H30.3419C30.2632 28.4121 30.2102 29.0934 30.183 29.7716C30.1558 30.4499 30.1421 31.1342 30.1421 31.8246C30.1421 32.0552 30.1421 32.2767 30.1421 32.5073C30.1421 32.7379 30.1421 32.9595 30.1421 33.1947C30.1421 33.4298 30.1421 33.7192 30.1421 33.986C30.1499 34.251 30.1741 34.5153 30.2148 34.7773C30.3263 34.8158 30.4422 34.8401 30.5598 34.8497H30.9049C31.3028 34.8503 31.7003 34.8231 32.0944 34.7682L33.2612 34.6055L33.1931 35.9032Z" fill="white" />
    <path d="M39.5584 35.9032C38.9743 35.864 38.3901 35.8399 37.8059 35.8309H36.0625H35.5177C35.3452 35.8309 35.1636 35.8309 34.9865 35.8535L34.5597 35.8897L34.1329 35.9123C34.2207 35.228 34.2767 34.5467 34.3009 33.8684C34.3251 33.1901 34.3372 32.5089 34.3372 31.8246C34.3372 31.1312 34.3251 30.4469 34.3009 29.7716C34.2767 29.0964 34.2207 28.4151 34.1329 27.7278C34.3781 27.7278 34.6187 27.7278 34.8548 27.7278C35.0909 27.7278 35.3315 27.7278 35.5767 27.7278H37.311C37.8831 27.7278 38.4627 27.7172 39.0499 27.6961V28.9713C38.671 28.8632 38.2838 28.786 37.8922 28.7407C37.5002 28.6976 37.1061 28.6764 36.7117 28.6774H36.5211V31.2051H36.6164H36.7299C37.0629 31.2051 37.417 31.19 37.7923 31.1598C38.1676 31.1297 38.5218 31.0935 38.8547 31.0513V32.2541C38.5218 32.2149 38.1903 32.1818 37.8604 32.1547C37.5305 32.1275 37.1945 32.1139 36.8525 32.1139H36.5301V33.2354C36.5301 33.4886 36.5301 33.7373 36.5301 33.9815C36.5386 34.2269 36.5629 34.4716 36.6028 34.714C36.8286 34.7694 37.0604 34.7967 37.2929 34.7954C37.6908 34.7961 38.0883 34.7689 38.4824 34.714L39.6492 34.5512L39.5584 35.9032Z" fill="white" />
    <path d="M45.1882 27.7187C45.5121 28.6231 45.8496 29.5049 46.2007 30.364C46.5518 31.2231 46.9165 32.0928 47.2949 32.9731C47.5158 33.4675 47.7444 33.9573 47.9805 34.4427L48.6932 35.8987H45.9464C45.7981 35.4978 45.6468 35.1059 45.4924 34.723C45.3381 34.3402 45.1701 33.9543 44.9885 33.5655H42.4188C42.278 33.9498 42.1327 34.3387 41.9647 34.723C41.7968 35.1074 41.6878 35.5008 41.5788 35.9032H39.9444C40.6557 34.4713 41.3306 33.0304 41.9693 31.5804C42.2447 30.9443 42.5171 30.3067 42.7865 29.6676C43.0559 29.0286 43.3041 28.3789 43.5311 27.7187H45.1882ZM42.7229 32.548H44.6298L43.6355 30.0701L42.7229 32.548Z" fill="white" />
    <path d="M56.2526 32.123C56.1981 32.533 56.1543 32.9399 56.121 33.3439C56.0892 33.7508 56.0756 34.1578 56.0756 34.5648C56.0756 34.7457 56.0756 34.9205 56.0756 35.0893C56.0883 35.2643 56.1142 35.4381 56.1528 35.6093C55.9127 35.6943 55.6669 35.7623 55.4172 35.8128C55.1403 35.8716 54.8543 35.9168 54.5592 35.953C54.264 35.9892 53.9689 36.0118 53.6829 36.0298C53.3969 36.0479 53.1381 36.0525 52.9065 36.0525C52.3268 36.0553 51.7504 35.9652 51.1994 35.7857C50.6823 35.6206 50.2027 35.3564 49.7874 35.0079C49.383 34.6634 49.0578 34.2362 48.834 33.7554C48.5922 33.2231 48.4728 32.6438 48.4844 32.0597C48.4702 31.3914 48.6116 30.729 48.8976 30.1244C49.1608 29.5829 49.5406 29.1059 50.0099 28.7271C50.4932 28.3444 51.0446 28.056 51.6353 27.877C52.2689 27.6815 52.9288 27.5839 53.5921 27.5876C53.9942 27.5885 54.3959 27.6126 54.7952 27.66C55.198 27.7063 55.5848 27.8439 55.9258 28.0624L55.5353 29.6541H55.3446C55.143 29.3125 54.859 29.0265 54.5183 28.8221C54.1729 28.6314 53.7826 28.5362 53.3878 28.5462C52.9808 28.5327 52.5782 28.6329 52.2255 28.8356C51.9151 29.024 51.6537 29.2827 51.4628 29.5908C51.2649 29.9155 51.1251 30.272 51.0496 30.6443C50.9674 31.0309 50.9263 31.4249 50.927 31.82C50.929 32.1966 50.967 32.5721 51.0405 32.9414C51.11 33.3128 51.2403 33.6703 51.4264 33.9996C51.6024 34.3127 51.8477 34.5818 52.1438 34.7863C52.4678 34.9991 52.8501 35.1066 53.238 35.0938H53.5876C53.7005 35.087 53.8128 35.0719 53.9235 35.0486C53.9235 34.9537 53.9235 34.8587 53.9235 34.7637V34.4698C53.9235 34.0749 53.9099 33.6845 53.8827 33.2987C53.8554 32.9128 53.8146 32.5239 53.7601 32.132L56.2526 32.123Z" fill="white" />
    <path d="M60.089 27.7187C59.9777 28.5283 59.9141 29.3436 59.8984 30.1605C59.8832 30.9805 59.8756 31.7989 59.8756 32.6159C59.8742 32.9179 59.8893 33.2198 59.9211 33.5202C59.9461 33.7873 60.0232 34.0468 60.1481 34.2844C60.2681 34.5051 60.4473 34.6882 60.6656 34.8135C60.9458 34.9571 61.2588 35.0257 61.5737 35.0124C61.9696 35.0393 62.363 34.9326 62.6906 34.7095C62.9419 34.5092 63.1322 34.2429 63.2399 33.9408C63.3594 33.6066 63.4238 33.2554 63.4306 32.9008C63.4306 32.5179 63.4306 32.1501 63.4306 31.7974C63.4306 31.1041 63.4064 30.4198 63.358 29.7445C63.3095 29.0693 63.246 28.3925 63.1673 27.7142H64.7336C64.661 28.3744 64.602 29.0361 64.5566 29.6993C64.5263 30.1967 64.5051 30.6881 64.493 31.1734C64.4809 31.6588 64.4809 32.1501 64.493 32.6475C64.493 33.8111 64.2267 34.6643 63.6939 35.2069C63.1612 35.7495 62.3062 36.0208 61.1287 36.0208C60.6718 36.0247 60.2156 35.9838 59.7667 35.8987C59.3759 35.8248 59.0049 35.6708 58.6771 35.4465C58.3653 35.2297 58.1163 34.935 57.9552 34.5919C57.7669 34.165 57.6769 33.7015 57.6918 33.2354C57.6918 32.961 57.6918 32.6912 57.6918 32.4259C57.6918 32.1637 57.6918 31.8924 57.6918 31.6166C57.6918 30.9624 57.6767 30.3112 57.6464 29.6631C57.6162 29.015 57.5602 28.3639 57.4785 27.7097L60.089 27.7187Z" fill="white" />
    <path d="M71.553 35.9032C70.9688 35.864 70.3846 35.8399 69.8005 35.8309L68.057 35.8264H67.5122C67.3397 35.8264 67.1626 35.8339 66.981 35.849L66.5542 35.8852L66.1275 35.9078C66.2152 35.2235 66.2697 34.5422 66.2909 33.8639C66.3121 33.1856 66.3242 32.5043 66.3272 31.82C66.3272 31.1267 66.3151 30.4424 66.2909 29.7671C66.2667 29.0919 66.2122 28.4106 66.1275 27.7233C66.3726 27.7233 66.6133 27.7233 66.8494 27.7233C67.0855 27.7233 67.3261 27.7233 67.5712 27.7233H69.3101C69.8822 27.7233 70.4603 27.7127 71.0445 27.6916V28.9668C70.667 28.8588 70.2813 28.7817 69.8913 28.7362C69.4993 28.6931 69.1052 28.6719 68.7108 28.6728H68.5111V31.2006H68.6064H68.7108C69.0438 31.2006 69.3979 31.1855 69.7732 31.1553C70.1486 31.1252 70.5027 31.089 70.8356 31.0468V32.2496C70.5027 32.2104 70.1712 32.1773 69.8413 32.1501C69.5114 32.123 69.1754 32.1094 68.8334 32.1094H68.5111V33.2308C68.5111 33.4841 68.5111 33.7328 68.5111 33.9769C68.5188 34.2225 68.5431 34.4672 68.5837 34.7095C68.808 34.7645 69.0382 34.7919 69.2693 34.7909C69.6672 34.7916 70.0647 34.7644 70.4588 34.7095L71.6256 34.5467L71.553 35.9032Z" fill="white" />
    <path d="M25.3795 27.9403C25.3641 27.8288 25.3271 27.7213 25.2705 27.6238C25.1729 27.4747 25.0246 27.3655 24.8528 27.3163C24.6439 27.2945 24.4327 27.3211 24.2358 27.394C24.0389 27.467 23.8616 27.5843 23.7178 27.7368C23.6526 27.5902 23.598 27.439 23.5544 27.2846L23.2502 26.6425C23.1367 26.3667 22.9097 26.1904 22.8506 25.8648C22.2377 24.9604 21.9426 23.7486 21.0346 23.1517C20.8527 22.9145 20.644 22.6991 20.4126 22.5096C20.1629 22.0846 19.668 21.9263 19.5045 21.4334C19.4728 21.3204 19.5045 21.1712 19.4455 21.0581C19.3865 20.9451 19.3048 20.9586 19.1958 20.8682C19.0868 20.7777 19.0369 20.6918 18.9733 20.6421C18.8326 20.5426 18.6646 20.4612 18.5193 20.3663C17.1027 21.9194 15.4496 23.2409 13.6205 24.2821L13.7204 24.4178C13.9167 24.626 14.0586 24.8792 14.1335 25.1549C14.1335 25.286 14.2107 25.399 14.2289 25.5256C14.2444 25.6238 14.2766 25.7187 14.3242 25.806C14.3587 25.9188 14.3741 26.0364 14.3696 26.1542C14.3861 26.2465 14.4104 26.3373 14.4423 26.4255C14.4423 26.4707 14.4423 26.5114 14.4423 26.5566C14.4423 26.6019 14.4831 26.5928 14.4967 26.6199C14.5127 26.7021 14.5233 26.7851 14.5285 26.8686C14.5671 27.0024 14.587 27.1409 14.5875 27.2801C14.5879 27.5707 14.6091 27.8608 14.6511 28.1483C14.6907 28.5782 14.7043 29.0101 14.692 29.4416C14.692 29.6631 14.6693 29.8937 14.6466 30.1063C14.6466 30.2193 14.6193 30.3323 14.6057 30.4454C14.5921 30.5584 14.6057 30.7258 14.5558 30.7755C14.3151 31.0378 14.2289 31.3859 14.0064 31.6437C13.8127 31.8316 13.6031 32.0026 13.3799 32.1546L13.0121 32.4576C12.9052 32.5245 12.8088 32.6068 12.7261 32.7018C12.6795 32.7834 12.6386 32.868 12.6035 32.955C12.5081 33.154 12.4037 33.3484 12.3038 33.5474C12.204 33.7463 12.1813 33.8277 12.1132 33.9679C12.0474 34.0837 11.9746 34.1955 11.8952 34.3025C11.8309 34.4474 11.7518 34.5853 11.6591 34.714C11.5724 34.8001 11.492 34.8923 11.4185 34.9898C11.2414 35.2159 11.1643 35.3018 11.0054 35.5415C10.8596 35.7937 10.6941 36.0341 10.5105 36.2605C10.3245 36.4227 10.1289 36.5737 9.92479 36.7126C9.71906 36.8593 9.52341 37.0194 9.33912 37.192C9.25218 37.46 9.20028 37.7381 9.18474 38.0194C9.14059 38.1224 9.1086 38.2302 9.0894 38.3405C9.10821 38.4936 9.14011 38.6449 9.18474 38.7927C9.23922 39.0685 9.18475 39.4528 9.40267 39.6563C9.7079 39.8877 10.0815 40.0117 10.4651 40.009C11.0371 39.9548 11.4684 39.9141 12.0541 39.8734C12.204 39.8056 12.1676 39.5071 12.1631 39.4574C12.1586 39.4077 12.1086 39.3172 12.1631 39.2313C12.9349 38.2862 13.5615 37.1965 14.5149 36.4368C14.6466 36.6267 14.81 36.7985 14.9689 37.002C15.0933 37.2104 15.2461 37.4006 15.4229 37.5673C15.6344 37.7199 15.8844 37.8107 16.1448 37.8295C16.4626 37.6622 16.3083 36.3418 16.5988 35.8264C16.8304 35.7811 17.0029 35.6771 17.2254 35.6183C18.6374 34.203 20.2264 32.756 21.7383 31.3859C21.943 31.1739 22.1647 30.9789 22.4012 30.8026C22.8007 30.5539 23.282 30.4725 23.6906 30.2555C24.358 29.4732 25.4476 28.2207 25.325 27.9494M11.6364 39.3488C11.4957 39.4981 11.2596 39.489 10.7284 39.4664C10.4476 39.4864 10.167 39.4251 9.92026 39.2901C9.66147 39.1815 9.57974 39.2223 9.63876 38.544C9.69778 37.8657 10.2608 37.9607 10.8692 38.1551C11.4775 38.3495 11.4912 38.4083 11.5184 38.5395C11.5456 38.6706 11.6728 39.0504 11.6728 39.0504C11.6728 39.0504 11.7409 39.2494 11.6501 39.3488M16.0858 36.9613C16.0858 37.1377 16.0858 37.2553 15.8996 37.2236C15.5773 37.1739 15.5682 36.9206 15.4456 36.7262C15.3602 36.6039 15.2814 36.4771 15.2095 36.3464C15.2822 36.1565 15.3276 36.2288 15.5183 36.1881C15.6676 36.1416 15.8191 36.1024 15.9723 36.0705C16.0631 36.0705 16.0222 36.0072 16.0812 36.3645C16.1187 36.5617 16.1187 36.7641 16.0812 36.9613M19.0641 29.1386C18.5332 28.8864 17.9396 28.7952 17.357 28.8763C17.357 28.8763 17.357 28.8763 17.357 28.9125C17.3979 28.8628 17.8701 28.9125 17.7339 28.9125C17.3759 28.9163 17.0195 28.9603 16.6715 29.0436C17.2118 28.5281 18.3967 28.6412 19.0278 28.9894C19.1277 29.0391 19.1459 29.0482 19.2321 29.0979C19.2957 29.2335 19.2321 29.1657 19.0823 29.1205M25.1071 28.1393C25.039 28.2026 25.039 28.2071 24.9754 28.2749C24.9089 28.3644 24.8311 28.445 24.7439 28.5146C24.6712 28.5869 24.6304 28.6141 24.5033 28.7181C24.3761 28.8221 24.2626 28.8989 24.081 29.0436C23.8994 29.1883 23.7814 29.3059 23.5861 29.4596C23.389 29.5917 23.1827 29.7096 22.9687 29.8123C22.8143 29.9284 22.62 29.9788 22.4284 29.9525C22.6009 29.7897 22.7644 29.5682 23.0141 29.3647C23.3682 29.0753 23.9494 28.9849 23.9221 28.4603C23.8982 28.2123 23.8306 27.9705 23.7224 27.7459C23.7814 27.7052 23.854 27.6645 23.8994 27.6283C24.0187 27.5455 24.1447 27.4729 24.2763 27.4113C24.4435 27.3282 24.6345 27.3059 24.8165 27.348C25.0072 27.3886 25.1162 27.5695 25.207 27.7323C25.2487 27.7898 25.2666 27.861 25.2569 27.9313C25.1961 27.9847 25.144 28.0473 25.1026 28.1167" fill="white" />
    <path d="M4.14517 7.33891C3.01122 8.89928 2.11188 10.616 1.47556 12.435C2.05906 11.0304 2.82205 9.70665 3.74564 8.4965C4.07858 8.05637 4.42515 7.63886 4.78534 7.24396C4.55833 7.28013 4.33132 7.3163 4.15879 7.33891" fill="#B9C450" />
    <path d="M20.9665 1.46055C16.676 -1.7635 9.43446 0.556188 4.64912 6.66064L5.37101 6.60638C9.666 2.31518 15.432 0.963153 19.0641 3.69433C23.1821 6.78725 22.9959 13.9543 18.651 19.697C16.4127 22.6498 13.5115 24.671 10.6558 25.4759C13.9973 24.6982 17.516 22.3649 20.1901 18.8153C24.9709 12.4847 25.3069 4.73434 20.9483 1.45603" fill="url(#paint0_linear_8_619)" />
    <path d="M14.5558 4.69817C14.6609 4.69408 14.7662 4.70319 14.869 4.7253H14.9099C14.9508 4.7253 14.9553 4.79765 15.0143 4.79765C15.1029 4.75971 15.2004 4.74717 15.2958 4.76147C15.3775 4.80217 15.4093 4.89261 15.4683 4.95139C15.4847 4.91557 15.5087 4.88373 15.5387 4.85807C15.5686 4.83241 15.6038 4.81354 15.6418 4.80279C15.6798 4.79203 15.7197 4.78964 15.7588 4.79578C15.7978 4.80192 15.835 4.81645 15.8679 4.83835C15.9541 4.89713 15.9087 4.9921 15.9995 5.02827C15.9995 4.89714 16.0631 4.87001 16.1403 4.84288C16.1638 4.84475 16.1866 4.85182 16.207 4.86355C16.2274 4.87528 16.2449 4.89138 16.2583 4.9107L16.2946 4.99662C16.331 5.1187 16.3582 5.24079 16.4036 5.35836C16.449 5.47592 16.4445 5.54827 16.4717 5.59801V5.69297C16.3998 5.72475 16.3231 5.74461 16.2447 5.75175C16.2674 5.8241 16.3264 5.86028 16.34 5.94167C16.1857 6.05924 15.9768 5.87837 15.827 5.94167C15.827 6.07281 15.9496 6.09541 15.9768 6.20846C15.8769 6.38933 15.6681 6.23559 15.5228 6.20846C15.4456 6.20846 15.3866 6.25819 15.314 6.24463C15.2413 6.23106 15.1823 6.09994 15.1233 6.16776C15.0643 6.23559 15.3276 6.27628 15.2958 6.37576C15.5864 6.37576 15.7816 6.61542 16.054 6.64255C16.1296 6.63864 16.2054 6.63864 16.281 6.64255C16.4944 6.67872 16.6942 7.03595 16.735 7.58761C16.735 7.461 16.8349 6.73299 16.8349 6.60638C16.9666 6.55212 17.0528 6.45717 17.1754 6.39838C17.1754 6.17229 17.2072 5.9462 17.2299 5.72011C17.0165 5.68393 16.7759 5.6568 16.5807 5.6161C16.5262 5.43071 16.4308 4.9333 16.2175 4.83382C16.0093 4.75299 15.787 4.71455 15.5637 4.72078C15.4275 4.72078 15.2958 4.72078 15.1641 4.72078C15.0844 4.73234 15.0033 4.73234 14.9235 4.72078C14.8138 4.6672 14.6907 4.64676 14.5694 4.66199C14.524 4.66199 14.5104 4.7027 14.5104 4.71174C14.5104 4.72078 14.4423 4.77957 14.5104 4.79765C14.5785 4.81574 14.5603 4.73887 14.6012 4.71627M12.5354 5.16845C12.5036 4.96949 12.6489 4.94234 12.7624 4.88808H12.885C12.9803 4.88808 13.0303 5.01922 13.0893 5.06444C13.103 4.9881 13.1412 4.91826 13.1983 4.86548L13.4253 4.83835C13.5433 4.83835 13.5342 5.00113 13.625 5.04635C13.625 4.81121 13.9565 4.75244 14.079 4.89714C14.0704 4.83879 14.0567 4.7813 14.0382 4.7253L12.3901 4.89714C12.3197 4.88313 12.2472 4.88313 12.1767 4.89714C12.381 4.89714 12.4128 5.06444 12.5172 5.15939M9.31186 13.5745L9.14388 14.0764C9.14388 14.1262 9.12119 14.1623 9.11211 14.1804C9.47141 14.1534 9.82809 14.099 10.179 14.0176L10.3697 13.9634L10.6285 13.8549C10.6285 13.8006 10.6285 13.7463 10.6285 13.7237C10.6075 13.5426 10.5757 13.3629 10.5332 13.1856L10.397 13.2173C10.1972 13.2806 9.9929 13.3394 9.78859 13.3846C9.62972 13.4302 9.46717 13.4619 9.30279 13.4795L9.26647 13.5609M17.6612 19.6609C17.6405 19.587 17.6268 19.5113 17.6204 19.4348C17.1664 18.7972 16.7941 18.1325 16.3854 17.4859C16.2492 17.2688 16.1176 17.0337 15.9677 16.8257C15.8006 16.6455 15.6232 16.4748 15.4366 16.3147C14.9054 15.7812 14.3378 15.3064 13.7839 14.8225C14.2016 14.0086 14.5875 13.1223 15.037 12.3491C15.2059 12.0941 15.3575 11.8282 15.491 11.5533C15.5624 11.3309 15.62 11.1044 15.6636 10.875C15.8406 10.1786 15.9859 9.51842 16.1721 8.83111C16.2379 8.79225 16.292 8.73649 16.3287 8.66967C16.3654 8.60285 16.3835 8.52742 16.3809 8.45128C16.222 8.45128 16.1494 8.3292 16.0404 8.26137C15.7453 8.39702 15.1641 8.34276 15.1324 8.07145C15.0597 7.70518 15.5864 7.67806 15.6272 7.42936C15.4956 7.42936 15.2504 7.55145 15.1732 7.42936C15.2958 7.33892 15.4547 7.28013 15.5728 7.18065C15.306 6.99877 15.0197 6.8471 14.7192 6.72847C14.6329 6.45782 14.5751 6.17899 14.5467 5.89645C14.5958 5.80739 14.6354 5.71342 14.6647 5.6161C14.6647 5.56636 14.6647 5.53922 14.6647 5.45331C14.5739 5.45331 14.5013 5.45331 14.4513 5.45331C14.4014 5.45331 14.4513 5.16392 14.3742 5.03731C14.353 5.17637 14.3085 5.3109 14.2425 5.43523C14.236 5.349 14.2096 5.26543 14.1653 5.19105C14.1986 5.44174 14.2564 5.6886 14.3378 5.92811C14.1244 5.89646 14.0473 5.99142 13.8838 5.98689C13.8872 6.00953 13.8833 6.03265 13.8727 6.05295C13.8621 6.07326 13.8453 6.0897 13.8248 6.09994C13.3732 6.20398 12.9289 6.3369 12.4945 6.49786C12.322 6.32151 12.2766 6.00951 12.1177 5.81959C12.1903 6.10899 12.3538 6.33055 12.44 6.6516C12.9985 6.49786 13.4525 6.23107 14.0518 6.12254C14.092 6.08562 14.1418 6.06057 14.1955 6.05019C14.2492 6.03981 14.3048 6.04451 14.356 6.06376C14.356 6.16776 14.4468 6.29437 14.3923 6.40289C14.1744 6.37124 14.306 6.40289 14.1653 6.44359C14.1199 6.41646 14.1108 6.47977 14.0246 6.49334C13.9419 6.50982 13.8623 6.53879 13.7885 6.57925C13.6931 6.61995 13.7113 6.62898 13.6205 6.64255C13.5947 6.65882 13.5673 6.67245 13.5388 6.68324C13.4734 6.69434 13.4095 6.71255 13.3481 6.73752L13.1438 6.79629L12.8895 6.86413C12.7931 6.87687 12.6986 6.90115 12.608 6.93647C12.4964 6.77342 12.3686 6.62194 12.2267 6.48428C12.1676 6.53855 12.1495 6.39385 12.1313 6.25819C11.9724 6.20393 11.927 6.04568 11.9225 5.84219C11.868 5.84219 11.7908 5.95976 11.6954 5.97333C11.5502 5.91455 11.4412 5.71557 11.2414 5.69297C11.0296 5.70048 10.8194 5.73235 10.6149 5.78793C10.4625 5.80037 10.3109 5.8215 10.1609 5.85123C9.16205 5.94619 5.72968 6.50237 5.09859 6.59733C5.75692 6.53855 9.47986 6.09541 10.3016 5.91002C10.6648 5.88289 11.0462 5.77889 11.3776 5.78341C11.3998 5.80939 11.4161 5.83976 11.4254 5.87251C11.4348 5.90526 11.4371 5.93964 11.4321 5.97333C10.911 6.12112 10.3777 6.2225 9.83852 6.27628C9.52979 6.3215 8.54459 6.52046 8.35844 6.55663C7.56391 6.7149 6.66041 6.88221 5.77962 7.00882L5.00325 7.13995C3.44669 7.44064 1.85407 7.51073 0.276943 7.34795C0.149818 7.34795 0.0998848 7.34796 0.0726439 7.37961C0.0911819 7.31177 0.135025 7.25355 0.195223 7.21683C0.407618 7.11362 0.631691 7.03619 0.862628 6.98621H0.976132C1.02153 6.94552 0.903489 6.98621 0.862628 6.98621C0.667401 6.98621 0.340513 6.98621 0.199768 6.98621C0.145009 7.04568 0.104627 7.11682 0.0817192 7.19421C0.0817192 7.19421 0.0317841 7.41126 0.0317841 7.4203C0.0606421 7.72106 0.156828 8.01155 0.313272 8.27041C0.867172 8.27041 1.37113 8.43319 1.88871 8.43771C2.31094 8.43771 2.73317 8.37894 3.14178 8.36085C3.4823 8.36085 3.81827 8.36084 4.16787 8.32467C4.77171 8.27493 5.38463 8.12119 5.98393 8.02171C7.84086 7.71875 9.67508 7.38414 11.4321 7.01787C11.6001 6.84152 11.7227 6.56568 12.095 6.7149C12.2312 7.00882 12.3447 7.32535 12.4582 7.61926C12.7352 7.70518 12.944 7.92223 13.2936 7.7911C13.1392 7.07665 13.8066 7.01334 14.2425 6.78725C14.2198 6.8596 14.2425 6.88673 14.2425 6.93647C14.6329 6.93647 14.583 7.38865 14.7555 7.61474C14.5872 7.56772 14.4107 7.55672 14.2378 7.58243C14.0649 7.60815 13.8994 7.67002 13.7522 7.76397C13.6614 7.81371 13.4707 7.91771 13.448 7.99006C13.4469 8.21922 13.4775 8.44744 13.5388 8.66833C13.5913 8.89869 13.6232 9.13323 13.6341 9.36921C13.5841 9.60361 13.5064 9.83129 13.4026 10.0475C13.3208 10.3007 13.2573 10.4997 13.1983 10.7664C12.6852 11.2186 12.2539 11.7658 11.6954 12.1863C11.6954 12.1094 11.6637 12.0145 11.6455 11.9331C11.58 11.9936 11.5067 12.0453 11.4276 12.0868L11.3776 12.114C11.3958 12.1577 11.4095 12.2031 11.4185 12.2496C11.4593 12.3402 11.4927 12.434 11.5184 12.53L11.5502 12.5073L11.6682 12.3988C11.6921 12.3526 11.7245 12.3112 11.7636 12.2767C11.7809 12.3168 11.783 12.3618 11.7697 12.4033C11.7563 12.4449 11.7284 12.4802 11.6909 12.5028C11.6458 12.5558 11.5957 12.6043 11.5411 12.6475C11.5999 12.9101 11.6258 13.179 11.6183 13.4479C10.8278 13.9486 9.91264 14.2195 8.9759 14.2302C8.70503 14.1908 8.45294 14.0693 8.25401 13.882C8.08149 13.7599 7.90897 13.6333 7.73644 13.5067C7.615 13.4355 7.50958 13.3401 7.42678 13.2265C7.34399 13.1129 7.28557 12.9835 7.25517 12.8465C7.23755 12.7447 7.23755 12.6407 7.25517 12.539C7.26893 12.6228 7.27803 12.7074 7.28242 12.7922C7.30437 12.8374 7.32258 12.8843 7.3369 12.9324C7.43047 13.1414 7.58985 13.3145 7.79092 13.4253C8.06331 13.6374 8.3467 13.8351 8.63993 14.0176C8.73144 14.0868 8.84285 14.1249 8.95773 14.1262C9.03945 13.891 9.11664 13.6468 9.19836 13.4117H9.04854C8.71257 13.4117 8.35844 13.5745 8.09057 13.3484C8.05094 13.332 8.0156 13.3067 7.98727 13.2746C7.95894 13.2425 7.93836 13.2043 7.92712 13.163C8.03003 13.1766 8.12405 13.2283 8.19046 13.3077L8.30396 13.3394H8.39476C8.58998 13.3394 8.76705 13.3394 8.94866 13.3122H8.97135L9.23923 13.2715L9.39813 12.8194V12.7741L9.03946 12.8555C8.68533 12.9505 8.3312 13.0409 7.97252 13.1223C7.90822 13.1364 7.84161 13.1364 7.7773 13.1223C7.6862 13.0983 7.60806 13.0399 7.55937 12.9595C7.54467 12.9258 7.53254 12.8911 7.52305 12.8555C7.48223 12.7884 7.45553 12.7137 7.4446 12.6359C7.43368 12.5582 7.43874 12.4791 7.45948 12.4034C7.44969 12.5369 7.48205 12.6702 7.55207 12.7845C7.62208 12.8988 7.72624 12.9885 7.84994 13.0409C7.93314 13.0326 8.01527 13.016 8.0951 12.9912L8.24494 12.955C8.61269 12.8691 8.97136 12.7741 9.33457 12.6701C9.83399 12.53 10.3334 12.3853 10.8192 12.218L10.9872 12.1546L11.0598 12.1275L11.2823 12.028L11.4276 11.9512L11.5366 11.8833L11.5774 11.8562C11.5883 11.7906 11.5754 11.7233 11.5411 11.6663C11.473 11.6663 11.3731 11.7477 11.305 11.7613C11.1945 11.7897 11.0823 11.8108 10.969 11.8246C10.9236 11.6346 10.8101 11.5035 10.7647 11.3181C11.0235 11.1644 11.3595 11.092 11.3686 10.6941C11.086 10.5784 10.8101 10.447 10.5423 10.3007C10.4427 10.1562 10.3532 10.0052 10.2744 9.84852C10.1959 9.7274 10.1062 9.61386 10.0065 9.50938C9.88439 9.33963 9.73016 9.19525 9.55251 9.08433C9.38261 9.0088 9.20638 8.94828 9.02585 8.90346C8.85463 8.83891 8.6763 8.7949 8.49464 8.77234C8.3533 8.7849 8.21347 8.81063 8.07695 8.8492C7.79668 8.87975 7.53152 8.99135 7.3142 9.17024C7.19773 9.24606 7.08968 9.33398 6.99185 9.43252C6.96461 9.46869 6.88288 9.56365 6.86018 9.60435C6.83748 9.64505 6.75576 9.73548 6.71036 9.81688C6.62864 9.97062 6.62863 9.9887 6.57869 10.0927C6.43459 10.3618 6.33349 10.6517 6.27904 10.9518C6.27904 11.8562 6.81933 12.236 6.99639 12.9821C6.99639 12.8827 6.93737 12.7606 6.99639 12.6792C7.04099 12.8132 7.06098 12.9541 7.05542 13.0952C7.19616 13.2535 7.44133 13.3168 7.50943 13.5474C7.33237 13.5157 7.18708 13.2444 7.05542 13.2354C7.25852 13.4339 7.48399 13.6084 7.72735 13.7554C7.76367 13.7554 7.81816 13.7554 7.85902 13.7554C8.06333 13.8503 8.22223 14.099 8.40838 14.1533C8.49464 14.1804 8.51734 14.1533 8.5809 14.2347C8.15413 14.307 8.027 13.7328 7.76821 13.8549C7.62371 13.913 7.46998 13.9452 7.3142 13.9498C7.27787 14.1262 7.50489 14.402 7.53667 14.5557C7.6865 14.7683 7.53666 14.8723 7.66833 15.1029C7.76977 15.1885 7.87923 15.2642 7.99522 15.329C8.01086 15.7855 8.06862 16.2396 8.16775 16.6855C8.33573 17.0111 8.72166 17.2281 8.98499 17.5175C9.24831 17.8069 9.67055 18.1687 9.89302 18.3902C10.6739 19.1454 11.423 19.7784 12.2312 20.5064C12.4355 20.6918 12.9258 21.0355 13.0257 21.2616C13.1084 21.4896 13.1722 21.7241 13.2164 21.9625C13.2968 22.1912 13.3606 22.4255 13.4071 22.6634C13.3818 23.0413 13.3818 23.4204 13.4071 23.7983C13.4311 23.8734 13.468 23.9438 13.5161 24.0063C15.1423 22.9532 16.5892 21.648 17.802 20.1402L18.0744 19.792C17.9693 19.6812 17.8305 19.6081 17.6794 19.584M11.2551 12.2089C11.2443 12.2043 11.2327 12.2019 11.221 12.2019C11.2093 12.2019 11.1977 12.2043 11.187 12.2089C11.0417 12.2677 10.8918 12.3129 10.7647 12.3581L10.5423 12.4305H10.5014C10.5014 12.4757 10.5014 12.5119 10.5014 12.548L10.6058 12.9369C10.8283 12.8601 11.0598 12.7741 11.2641 12.6747L11.4185 12.5887L11.3686 12.4034C11.3433 12.3261 11.3129 12.2506 11.2778 12.1773M10.5105 12.9686C10.4866 12.7995 10.4376 12.6349 10.3652 12.4802L9.91117 12.6249C9.81129 12.6611 9.71141 12.6927 9.60699 12.7199C9.5525 12.8827 9.49348 13.0455 9.439 13.2082C9.43785 13.2233 9.43785 13.2384 9.439 13.2534L9.70232 13.2082C9.94174 13.1579 10.1782 13.0945 10.4106 13.0183L10.5332 12.9731M10.6648 13.0816C10.7144 13.2871 10.7508 13.4955 10.7738 13.7056C10.9883 13.6377 11.1977 13.5545 11.4003 13.4569C11.439 13.428 11.48 13.4023 11.5229 13.3801C11.5231 13.1674 11.5018 12.9554 11.4594 12.747H11.4049C11.1643 12.8782 10.9101 12.9829 10.6467 13.059" fill="white" />
  </g>
  <defs>
    <linearGradient id="paint0_linear_8_619" x1="5.57145" y1="5.10634" x2="19.1625" y2="23.0719" gradientUnits="userSpaceOnUse">
      <stop stop-color="#B3C652" />
      <stop offset="0.461711" stop-color="#FAB433" />
      <stop offset="1" stop-color="#E04282" />
    </linearGradient>
    <clipPath id="clip0_8_619">
      <rect width="78" height="40" fill="white" />
    </clipPath>
  </defs>
</svg>