<svg width="53" height="30" viewBox="0 0 53 30" fill="none" xmlns="http://www.w3.org/2000/svg">
  <mask id="mask0_8_595" style="mask-type:luminance" maskUnits="userSpaceOnUse" x="0" y="0" width="53" height="30">
    <path d="M52.8625 0.769226H0.849976V29.2308H52.8625V0.769226Z" fill="white" />
  </mask>
  <g mask="url(#mask0_8_595)">
    <path d="M52.8625 0.769226H0.849976V29.2308H52.8625V0.769226Z" fill="#E87722" />
    <path d="M19.0062 9.45147C19.2073 9.45147 19.3807 9.61889 19.3807 9.78966V17.4576C19.3807 17.6751 19.2558 17.8928 19.0825 18.0368C17.5845 19.2656 15.289 19.9889 12.8895 19.9889C7.49751 19.9889 3.90173 16.5166 3.90173 11.3099C3.90173 6.10304 7.49751 2.63074 12.8895 2.63074C14.7376 2.63074 16.6829 3.15979 18.1324 4.0304C18.3335 4.12745 18.4063 4.31836 18.3577 4.46565L17.1094 8.00832C17.0332 8.17575 16.8598 8.24939 16.6344 8.2025C15.6115 7.67347 14.2869 7.35869 13.0386 7.35869C10.7431 7.35869 9.19311 8.94919 9.19311 11.3132C9.19311 13.6772 10.7397 15.3145 13.0386 15.3145C13.9609 15.3145 14.5851 15.1471 14.8625 14.8558V13.4561H12.567C12.3417 13.4561 12.1925 13.3591 12.1682 13.1917L11.8423 9.8633C11.818 9.62224 11.9672 9.45481 12.241 9.45481H19.0062V9.45147Z" fill="white" />
    <path d="M34.686 18.1811C34.7624 18.3519 34.6618 18.5193 34.4607 18.6164C33.0112 19.4837 31.066 20.016 29.2178 20.016C24.0755 20.016 20.6288 16.5437 20.6288 11.3369C20.6288 6.13014 24.0755 2.65784 29.2178 2.65784C31.066 2.65784 33.0112 3.18689 34.4607 4.0575C34.6618 4.15456 34.7589 4.32198 34.686 4.49275L33.039 7.84453C32.9384 8.06218 32.7651 8.13249 32.5639 8.0387C31.6416 7.53316 30.7401 7.36239 29.6686 7.36239C27.4217 7.36239 25.9237 8.95289 25.9237 11.3403C25.9237 13.7277 27.4217 15.3182 29.6686 15.3182C30.7435 15.3182 31.6416 15.1507 32.5639 14.6419C32.7651 14.5447 32.9384 14.6184 33.039 14.836L34.686 18.1878V18.1811Z" fill="white" />
    <path d="M43.972 3.01575C47.2418 3.01575 49.4159 4.89753 49.4159 7.71693C49.4159 9.45138 48.5421 10.7305 47.1932 11.1156C48.7675 11.5006 49.7904 12.9472 49.7904 14.9495C49.7904 17.7688 47.6197 19.6507 44.3742 19.6507H36.4579C36.2602 19.6507 36.1077 19.4833 36.1077 19.3125V3.37737C36.1077 3.20995 36.2567 3.01575 36.4579 3.01575H43.9754H43.972ZM42.8242 9.5485C43.5732 9.5485 44.0725 9.11318 44.0725 8.44021C44.0725 7.76717 43.5732 7.33185 42.8242 7.33185H41.2499V9.5485H42.8242ZM43.2715 15.3346C43.9962 15.3346 44.4955 14.8759 44.4955 14.176C44.4955 13.4762 43.9962 13.0175 43.2715 13.0175H41.2499V15.3312H43.2715V15.3346Z" fill="white" />
    <path d="M12.82 26.6487C12.8374 26.6789 12.82 26.7223 12.7819 26.7525C12.4455 26.9568 11.9809 27.0974 11.6272 27.0974C10.4968 27.0974 9.74786 26.3976 9.74786 25.3495C9.74786 24.3015 10.4968 23.6017 11.6272 23.6017C11.9844 23.6017 12.4455 23.7389 12.7819 23.9466C12.82 23.9767 12.8374 24.0202 12.82 24.0504L12.4594 24.787C12.4351 24.8339 12.3901 24.854 12.3485 24.8238C12.1925 24.7167 11.9566 24.643 11.7486 24.643C11.2943 24.643 10.9927 24.9276 10.9927 25.3529C10.9927 25.7781 11.2909 26.0628 11.7486 26.0628C11.9532 26.0628 12.1925 25.9891 12.3485 25.8819C12.3935 25.8518 12.4351 25.8685 12.4594 25.9187L12.82 26.6554V26.6487Z" fill="white" />
    <path d="M16.0656 26.6621C16.0795 26.7056 16.0656 26.7291 16.0205 26.7525C15.6876 26.9635 15.2091 27.0907 14.7272 27.0907C13.621 27.0907 12.8859 26.3909 12.8859 25.3495C12.8859 24.3082 13.6106 23.6017 14.696 23.6017C15.7812 23.6017 16.343 24.2479 16.343 25.3428C16.343 25.4333 16.3361 25.5236 16.3188 25.6141C16.3118 25.6609 16.2806 25.6877 16.2251 25.6877H14.2209C14.2209 25.6877 14.2209 26.0661 14.7445 26.0661C15.0635 26.0661 15.4172 25.9925 15.7015 25.8685C15.7466 25.8518 15.7812 25.8753 15.7951 25.9154L16.0621 26.6621H16.0656ZM15.1051 25.0515C15.1051 24.787 14.9352 24.6128 14.6856 24.6128C14.4047 24.6128 14.2174 24.787 14.2174 25.0515H15.1051Z" fill="white" />
    <path d="M18.6733 23.6823C18.7218 23.6823 18.76 23.7191 18.76 23.766V24.5495C18.76 24.5964 18.7218 24.6332 18.6733 24.6332H18.5104C18.2745 24.6332 18.0596 24.737 17.9799 24.8877V26.9068C17.9799 26.9537 17.9347 26.9972 17.8862 26.9972H16.787C16.7385 26.9972 16.6934 26.9537 16.6934 26.9068V23.7727C16.6934 23.7291 16.7385 23.689 16.787 23.689H17.4909C17.5395 23.689 17.5707 23.7325 17.5915 23.7794L17.6851 24.0439C17.8723 23.8196 18.1775 23.6823 18.5104 23.6823H18.6733Z" fill="white" />
    <path d="M21.1462 23.6825C21.2016 23.6825 21.2398 23.7193 21.2398 23.7662L21.1704 24.3521C21.1635 24.399 21.1254 24.4426 21.0768 24.4426H20.6781V26.907C20.6781 26.9539 20.633 26.9974 20.5844 26.9974H19.4852C19.4367 26.9974 19.3916 26.9539 19.3916 26.907V24.4426H19.0345C18.9894 24.4426 18.9478 24.4057 18.9478 24.3588V23.7729C18.9478 23.7193 18.9929 23.6825 19.0345 23.6825H19.3916V23.0262C19.3916 22.9826 19.4367 22.9492 19.4852 22.9425L20.5844 22.8387C20.633 22.832 20.6781 22.8822 20.6781 22.9224V23.6825H21.1462Z" fill="white" />
    <path d="M21.9949 27.0842C21.6655 27.0842 21.4471 26.8867 21.4471 26.5887C21.4471 26.2906 21.6655 26.0831 21.9949 26.0831C22.3244 26.0831 22.5428 26.2873 22.5428 26.5887C22.5428 26.89 22.3244 27.0842 21.9949 27.0842Z" fill="white" />
    <path d="M25.0772 26.5655C24.9767 26.7597 24.6784 26.8836 24.3282 26.8836C23.4163 26.8836 22.8094 26.2507 22.8094 25.2965C22.8094 24.2283 23.3712 23.5955 24.3282 23.5955C24.8102 23.5955 25.1916 23.7227 25.3511 23.9403L25.4621 23.7729C25.5002 23.7193 25.5557 23.6825 25.6077 23.6825H26.27C26.3255 23.6825 26.3636 23.7193 26.3636 23.7729V26.6894C26.3636 27.6001 25.5072 28.2096 24.4461 28.2096C23.8289 28.2096 23.2776 28.0722 22.9724 27.8312C22.9343 27.8011 22.9239 27.7575 22.9343 27.7274L23.2533 26.9807C23.2706 26.9371 23.3088 26.9204 23.3469 26.9439C23.6139 27.1548 24.0265 27.2821 24.4461 27.2821C24.8379 27.2821 25.0772 27.0811 25.0772 26.7396V26.5655ZM25.0772 24.9984C25.0772 24.9984 24.9836 24.7272 24.6472 24.7272C24.3351 24.7272 24.1549 24.9381 24.1549 25.2998C24.1549 25.6614 24.3351 25.8791 24.6472 25.8791C24.9836 25.8791 25.0772 25.6078 25.0772 25.6078V24.9984Z" fill="white" />
    <path d="M29.7837 26.6487C29.8011 26.6789 29.7837 26.7223 29.7456 26.7525C29.4092 26.9568 28.9446 27.0974 28.5909 27.0974C27.4605 27.0974 26.7115 26.3976 26.7115 25.3495C26.7115 24.3015 27.4605 23.6017 28.5909 23.6017C28.9481 23.6017 29.4092 23.7389 29.7456 23.9466C29.7837 23.9767 29.8011 24.0202 29.7837 24.0504L29.4231 24.787C29.3988 24.8339 29.3538 24.854 29.3122 24.8238C29.1561 24.7167 28.9169 24.643 28.7122 24.643C28.258 24.643 27.9564 24.9276 27.9564 25.3529C27.9564 25.7781 28.2545 26.0628 28.7122 26.0628C28.9169 26.0628 29.1561 25.9891 29.3122 25.8819C29.3572 25.8518 29.3988 25.8685 29.4231 25.9187L29.7837 26.6554V26.6487Z" fill="white" />
    <path d="M31.4268 23.8262C31.614 23.6823 31.8949 23.5985 32.1897 23.5985C33.1779 23.5985 33.8367 24.2984 33.8367 25.3397C33.8367 26.3811 33.1744 27.0876 32.1897 27.0876C31.7701 27.0876 31.3713 26.9302 31.1355 26.6892L31.0419 26.9068C31.0176 26.9603 30.9864 26.9972 30.9414 26.9972H30.234C30.1854 26.9972 30.1404 26.9537 30.1404 26.9068V22.7112C30.1404 22.6677 30.1854 22.6275 30.234 22.6275H31.3332C31.3817 22.6275 31.4268 22.671 31.4268 22.7112V23.8262ZM31.4268 25.7282C31.5031 25.9257 31.7008 26.0597 31.9192 26.0597C32.2625 26.0597 32.4948 25.7717 32.4948 25.3364C32.4948 24.9011 32.2625 24.6366 31.9192 24.6366C31.7008 24.6366 31.4996 24.7705 31.4268 24.968V25.7282Z" fill="white" />
    <path d="M34.6516 27.0842C34.3222 27.0842 34.1038 26.8867 34.1038 26.5887C34.1038 26.2906 34.3222 26.0831 34.6516 26.0831C34.981 26.0831 35.1994 26.2873 35.1994 26.5887C35.1994 26.89 34.981 27.0842 34.6516 27.0842Z" fill="white" />
    <path d="M38.5424 26.6487C38.5598 26.6789 38.5424 26.7223 38.5043 26.7525C38.168 26.9568 37.7033 27.0974 37.3496 27.0974C36.2192 27.0974 35.4702 26.3976 35.4702 25.3495C35.4702 24.3015 36.2192 23.6017 37.3496 23.6017C37.7068 23.6017 38.168 23.7389 38.5043 23.9466C38.5424 23.9767 38.5598 24.0202 38.5424 24.0504L38.1818 24.787C38.1575 24.8339 38.1124 24.854 38.0708 24.8238C37.9148 24.7167 37.679 24.643 37.471 24.643C37.0168 24.643 36.7151 24.9276 36.7151 25.3529C36.7151 25.7781 37.0133 26.0628 37.471 26.0628C37.679 26.0628 37.9148 25.9891 38.0708 25.8819C38.1159 25.8518 38.1575 25.8685 38.1818 25.9187L38.5424 26.6554V26.6487Z" fill="white" />
    <path d="M44.0213 23.6823C44.0698 23.6823 44.101 23.7258 44.0837 23.766L43.0678 26.9135C43.0539 26.957 43.0054 26.9972 42.9568 26.9972H41.9893C41.9408 26.9972 41.8819 26.9537 41.8645 26.9135L41.3826 25.3096L40.9006 26.9135C40.8833 26.957 40.8243 26.9972 40.7757 26.9972H39.8083C39.7598 26.9972 39.7078 26.9537 39.6974 26.9135L38.6813 23.766C38.664 23.7225 38.6952 23.6823 38.7438 23.6823H40.006C40.0615 23.6823 40.1135 23.7191 40.1239 23.766L40.4498 25.0853L40.7861 23.766C40.8 23.7057 40.8555 23.6823 40.8971 23.6823H41.8715C41.9651 23.6823 41.972 23.7057 41.9824 23.766L42.3188 25.0853L42.6447 23.766C42.6586 23.7191 42.7071 23.6823 42.7626 23.6823H44.0248H44.0213Z" fill="white" />
  </g>
</svg>