<svg width="33" height="34" viewBox="0 0 33 34" fill="none" xmlns="http://www.w3.org/2000/svg">
  <path fill-rule="evenodd" clip-rule="evenodd" d="M3.46294 17C3.46294 9.79982 9.29982 3.96294 16.5 3.96294C23.7001 3.96294 29.537 9.79982 29.537 17C29.537 24.2001 23.7001 30.037 16.5 30.037C9.29982 30.037 3.46294 24.2001 3.46294 17ZM16.5 2.33331C8.3998 2.33331 1.83331 8.8998 1.83331 17C1.83331 25.1002 8.3998 31.6666 16.5 31.6666C24.6002 31.6666 31.1666 25.1002 31.1666 17C31.1666 8.8998 24.6002 2.33331 16.5 2.33331ZM12.0018 20.349H10.7268V14.6162L9.36379 15.5891L8.75924 14.6894L10.9686 13.1621H12.0018V20.349ZM18.8323 18.3718C18.8323 19.6376 17.6342 20.4222 16.1173 20.4222C14.5565 20.4222 13.4243 19.5853 13.4243 18.3718C13.4243 17.3989 14.0069 16.7398 14.7213 16.4679V16.4469C14.2707 16.2377 13.798 15.6623 13.798 14.9405C13.798 13.7584 14.7983 13.0889 16.1173 13.0889C17.4913 13.0889 18.4586 13.8002 18.4586 14.9405C18.4586 15.6728 17.9749 16.2691 17.5243 16.4469V16.4679C18.2497 16.7294 18.8323 17.3884 18.8323 18.3718ZM15.0071 15.0556C15.0071 15.5891 15.4688 15.9448 16.1173 15.9448C16.7768 15.9448 17.2385 15.5891 17.2385 15.0556C17.2385 14.543 16.7658 14.1559 16.1173 14.1559C15.4578 14.1559 15.0071 14.5744 15.0071 15.0556ZM14.7213 18.2149C14.7213 18.853 15.3369 19.3447 16.1173 19.3447C16.9637 19.3447 17.5243 18.8112 17.5243 18.2149C17.5243 17.5349 16.9527 17.0537 16.1173 17.0537C15.2819 17.0537 14.7213 17.5349 14.7213 18.2149ZM23.022 19.9096H21.8899V17.9847H19.8564V16.9177H21.8899V14.9824H23.022V16.9177H25.0555V17.9847H23.022V19.9096Z" fill="white" />
</svg>