<svg width="90" height="40" viewBox="0 0 90 40" fill="none" xmlns="http://www.w3.org/2000/svg">
  <path fill-rule="evenodd" clip-rule="evenodd" d="M59.0434 24.8056H62.3785L67.017 9H63.6817L59.0434 24.8056ZM40.2291 28.6002C40.2157 28.7016 40.2087 28.7633 40.2086 28.7856L40.1767 30.2125H40.6275L40.6698 27.2009L39.3472 29.0226C39.3344 29.041 39.3154 29.0673 39.2905 29.1016C39.1968 29.2292 39.1255 29.3343 39.076 29.4172C39.0613 29.3186 39.0487 29.2357 39.038 29.1686C39.0273 29.1016 39.0185 29.0534 39.0124 29.0245L38.5942 27.2009L37.1249 30.2125H37.5711L38.2523 28.7897C38.2884 28.7174 38.3192 28.6479 38.345 28.5815C38.3707 28.5149 38.3918 28.4516 38.4084 28.3909C38.4112 28.4503 38.4169 28.5102 38.4252 28.5707C38.4335 28.6311 38.446 28.6936 38.4622 28.7582L38.8445 30.3291L40.0159 28.7897C40.0673 28.7212 40.1122 28.6541 40.1515 28.5883C40.1906 28.5227 40.2247 28.4568 40.2535 28.3909C40.2477 28.4462 40.2395 28.516 40.2291 28.6002ZM15.9068 30.2143L16.6688 27.2109L18.1168 28.9771C18.1556 29.0268 18.1947 29.0802 18.2332 29.1368C18.2718 29.1934 18.3112 29.2571 18.3517 29.3282L18.86 27.3253H19.3085L18.547 30.3265L17.0685 28.5288C17.0289 28.4803 16.9921 28.4291 16.9577 28.375C16.9229 28.321 16.8916 28.2644 16.8629 28.2053L16.3532 30.2143H15.9068ZM13.5207 27.324H13.9998L13.5546 29.0785C13.4885 29.3388 13.5009 29.5348 13.5923 29.6655C13.6832 29.7964 13.8526 29.8618 14.1001 29.8618C14.346 29.8618 14.5477 29.7964 14.7052 29.6655C14.863 29.5348 14.9749 29.3388 15.041 29.0785L15.486 27.324H15.9713L15.5152 29.1219C15.4161 29.5126 15.2395 29.805 14.9866 29.9989C14.7336 30.1931 14.4019 30.29 13.9915 30.29C13.5807 30.29 13.2989 30.1932 13.1455 29.9998C12.9919 29.8066 12.9651 29.5139 13.0646 29.1219L13.5207 27.324ZM20.002 27.3254L19.269 30.2145H19.7541L20.4869 27.3254H20.002ZM20.4515 30.2145L21.1845 27.3254H22.85L22.7489 27.7239H21.5684L21.3856 28.4442H22.5661L22.4616 28.8566H21.281L20.9366 30.2145H20.4515ZM23.3845 27.3254L22.6515 30.2145H23.1366L23.8694 27.3254H23.3845ZM23.834 30.2145L24.567 27.3254H26.2325L26.1314 27.7239H24.9509L24.7671 28.4481H25.9475L25.843 28.8607H24.6626L24.4257 29.7941H25.6061L25.4996 30.2145H23.834ZM27.0567 29.79H26.6489L27.1676 27.7456H27.343H27.5183C27.7684 27.7456 27.9483 27.7601 28.0588 27.7888C28.1692 27.8179 28.2576 27.8668 28.3245 27.9351C28.4136 28.0286 28.4686 28.1446 28.4898 28.2836C28.5109 28.4222 28.4981 28.5834 28.4516 28.7676C28.4049 28.9519 28.3356 29.1136 28.2441 29.2523C28.1524 29.3912 28.0384 29.5074 27.902 29.6006C27.8015 29.6689 27.6918 29.7177 27.5723 29.7466C27.4528 29.7755 27.2809 29.79 27.0567 29.79ZM26.7892 27.3252L26.0562 30.2145H26.7103H26.8409C27.193 30.2145 27.4573 30.1936 27.6346 30.1523C27.8113 30.1107 27.9777 30.0413 28.1329 29.9439C28.338 29.815 28.5104 29.6516 28.6495 29.4535C28.7889 29.2556 28.8911 29.0283 28.9561 28.7717C29.0212 28.5152 29.0347 28.2869 28.9964 28.0868C28.958 27.8871 28.8688 27.7232 28.7285 27.5956C28.6228 27.4984 28.4885 27.4288 28.3259 27.3872C28.163 27.3458 27.8689 27.3252 27.4435 27.3252H26.7892ZM31.3185 28.5331H31.443C31.7119 28.5331 31.8985 28.5046 32.0027 28.4481C32.107 28.3917 32.177 28.2916 32.2133 28.1482C32.2524 27.9943 32.2322 27.8856 32.1523 27.8226C32.0724 27.7595 31.9043 27.7276 31.6474 27.7276H31.5229L31.3185 28.5331ZM31.1903 28.9176L30.8613 30.2145H30.4068L31.14 27.3254H31.8738C32.0912 27.3254 32.2484 27.3368 32.3453 27.3598C32.4418 27.3827 32.5215 27.4207 32.5845 27.4734C32.6611 27.5405 32.7114 27.6309 32.7357 27.7446C32.7597 27.8585 32.7545 27.9839 32.7199 28.1204C32.685 28.2574 32.6265 28.3837 32.5442 28.4995C32.4619 28.6152 32.3654 28.7061 32.255 28.7717C32.1654 28.8244 32.0667 28.862 31.9584 28.8842C31.8499 28.9067 31.6872 28.9176 31.4698 28.9176H31.3741H31.1903ZM34.1508 29.0798H33.319L33.7919 28.4205C33.8227 28.3745 33.854 28.3243 33.8861 28.2698C33.9185 28.2151 33.9508 28.1562 33.983 28.093C33.9852 28.1601 33.9887 28.221 33.9937 28.2756C33.9991 28.3303 34.0053 28.3786 34.0119 28.4205L34.1508 29.0798ZM34.2227 29.4705L34.3727 30.2145H34.8843L34.2026 27.211L31.9955 30.2145H32.5049L33.0402 29.4705H34.2227ZM35.5797 30.2145L35.9148 28.8922L35.3074 27.3254H35.8171L36.1942 28.3061C36.2028 28.3313 36.2132 28.3641 36.2251 28.4049C36.2372 28.4457 36.249 28.4896 36.2601 28.5371C36.2905 28.491 36.3218 28.4473 36.3531 28.4067C36.3844 28.3659 36.4161 28.3285 36.4481 28.2942L37.3359 27.3254H37.8212L36.396 28.8922L36.0606 30.2145H35.5797ZM41.0149 30.2145L41.7481 27.3254H43.4137L43.3125 27.7239H42.1319L41.9482 28.4481H43.1286L43.0242 28.8607H41.8436L41.6068 29.7941H42.7872L42.6803 30.2145H41.0149ZM43.9992 27.2109L43.2371 30.2143H43.6835L44.1932 28.2053C44.2219 28.2644 44.2532 28.321 44.288 28.375C44.3224 28.4291 44.3593 28.4803 44.3989 28.5288L45.8773 30.3265L46.639 27.3253H46.1903L45.682 29.3282C45.6416 29.2571 45.6021 29.1934 45.5636 29.1368C45.525 29.0802 45.4859 29.0268 45.4472 28.9771L43.9992 27.2109ZM48.187 27.7239L47.5552 30.2145H47.07L47.7017 27.7239H46.9087L47.0099 27.3254H49.077L48.976 27.7239H48.187ZM49.122 29.4613L48.6907 29.6348C48.6875 29.8455 48.7529 30.0072 48.8868 30.1203C49.0203 30.2335 49.2142 30.29 49.4686 30.29C49.7715 30.29 50.0326 30.2094 50.2516 30.0483C50.4706 29.8872 50.6146 29.6699 50.684 29.396C50.7319 29.2081 50.7165 29.0512 50.6383 28.9254C50.5603 28.7998 50.3901 28.671 50.1284 28.5396L50.0745 28.5119C49.7754 28.3619 49.648 28.2002 49.6919 28.0266C49.7201 27.9159 49.7811 27.8278 49.8742 27.7619C49.9678 27.6964 50.0798 27.6633 50.2103 27.6633C50.3024 27.6633 50.3792 27.6844 50.4399 27.7265C50.5005 27.7687 50.5493 27.8352 50.5863 27.9259L51.0133 27.7364C50.9953 27.5825 50.9227 27.4646 50.7954 27.3821C50.6682 27.2999 50.4944 27.2588 50.2743 27.2588C50.0063 27.2588 49.7715 27.3319 49.5693 27.4779C49.3671 27.624 49.236 27.8148 49.1763 28.0502C49.1303 28.2317 49.1462 28.3853 49.2235 28.5109C49.301 28.6366 49.4847 28.7771 49.7744 28.9323C49.7934 28.9416 49.8211 28.9561 49.8571 28.9758C50.1139 29.1085 50.2213 29.2598 50.1783 29.4297C50.1452 29.5599 50.0762 29.6638 49.9716 29.7414C49.8671 29.819 49.7426 29.8579 49.5987 29.8579C49.4461 29.8579 49.3297 29.8241 49.2491 29.7562C49.1685 29.6885 49.1263 29.5901 49.122 29.4613ZM52.2749 30.2145L53.0079 27.3254H53.4931L52.7601 30.2145H52.2749ZM54.2195 27.2109L53.4574 30.2143H53.9038L54.4134 28.2053C54.4421 28.2644 54.4735 28.321 54.5081 28.375C54.5426 28.4291 54.5796 28.4803 54.6192 28.5288L56.0976 30.3265L56.8591 27.3253H56.4107L55.9023 29.3282C55.8619 29.2571 55.8224 29.1934 55.7839 29.1368C55.7453 29.0802 55.7062 29.0268 55.6675 28.9771L54.2195 27.2109ZM58.4073 27.7239L57.7753 30.2145H57.2904L57.922 27.7239H57.129L57.2302 27.3254H59.2973L59.1963 27.7239H58.4073ZM59.6685 27.3254L58.9355 30.2145H60.6011L60.7078 29.7941H59.5274L59.7642 28.8607H60.9446L61.0493 28.4481H59.8688L60.0527 27.7239H61.2331L61.3341 27.3254H59.6685ZM62.0635 28.5566H62.1514C62.408 28.5566 62.586 28.5279 62.6849 28.47C62.7839 28.4121 62.8524 28.3096 62.8894 28.1621C62.9298 28.0029 62.9132 27.8907 62.839 27.8257C62.7655 27.7603 62.6062 27.7278 62.3617 27.7278H62.2738L62.0635 28.5566ZM61.9404 28.9217L61.6123 30.2145H61.1577L61.8909 27.3254H62.5677C62.7661 27.3254 62.9169 27.3378 63.0198 27.3629C63.1229 27.3879 63.2059 27.4292 63.2687 27.4873C63.3434 27.5568 63.3918 27.6472 63.4143 27.7577C63.4363 27.868 63.4306 27.9891 63.3973 28.1204C63.3387 28.352 63.2349 28.5333 63.0862 28.6643C62.9375 28.7951 62.7469 28.8739 62.5146 28.9L63.2088 30.2145H62.6602L61.9954 28.9217H61.9404ZM64.2295 27.3254L63.4965 30.2145H63.9816L64.3262 28.8566H65.5066L65.6112 28.4442H64.4306L64.6134 27.7239H65.794L65.895 27.3254H64.2295ZM66.4571 29.0798H67.2891L67.1502 28.4205C67.1434 28.3786 67.1374 28.3303 67.132 28.2756C67.127 28.221 67.1236 28.1601 67.1213 28.093C67.089 28.1562 67.0566 28.2151 67.0244 28.2698C66.9923 28.3243 66.9608 28.3745 66.93 28.4205L66.4571 29.0798ZM67.511 30.2145L67.361 29.4705H66.1785L65.6432 30.2145H65.1337L67.3408 27.211L68.0226 30.2145H67.511ZM70.8103 27.772C70.949 27.8286 71.0725 27.9135 71.181 28.0266L71.328 27.5532C71.2036 27.4528 71.0684 27.3782 70.9219 27.3291C70.7754 27.2797 70.6145 27.2549 70.4391 27.2549C70.2162 27.2549 69.9995 27.2916 69.7893 27.3644C69.5794 27.4376 69.3822 27.545 69.1978 27.6871C69.0142 27.8278 68.8594 27.9913 68.7341 28.1775C68.6087 28.3637 68.519 28.5626 68.4652 28.7743C68.4116 28.9863 68.4 29.186 68.4308 29.3734C68.461 29.561 68.5318 29.7237 68.6421 29.8618C68.753 30.0028 68.8964 30.1092 69.0718 30.1815C69.247 30.2539 69.449 30.29 69.6773 30.29C69.8566 30.29 70.0287 30.2676 70.1937 30.2229C70.3585 30.1784 70.5178 30.1105 70.6713 30.0198L70.806 29.4887C70.6284 29.6113 70.4518 29.7027 70.2767 29.7632C70.1017 29.8238 69.926 29.8541 69.7491 29.8541C69.4462 29.8541 69.2207 29.7526 69.073 29.5499C68.9253 29.3474 68.8908 29.0904 68.9699 28.7785C69.0517 28.4561 69.2205 28.1937 69.4766 27.991C69.7324 27.7885 70.0237 27.6871 70.3497 27.6871C70.5184 27.6871 70.6719 27.7157 70.8103 27.772ZM71.2277 30.2145L71.9607 27.3254H73.6263L73.5251 27.7239H72.3449L72.161 28.4481H73.3414L73.2368 28.8607H72.0564L71.8196 29.7941H73L72.8933 30.2145H71.2277ZM60.6472 9.50048C60.416 9.19973 60.0593 9.04796 59.5749 9.04796H41.2352L40.3269 12.1436H43.6639V12.1419H57.0108L56.0398 15.45H42.6926L42.6938 15.4432H39.3581L36.5896 24.8733H39.927L41.7849 18.5439H56.7882C57.2567 18.5439 57.6978 18.3931 58.1125 18.0915C58.5264 17.7896 58.7988 17.4174 58.9294 16.9729L60.7871 10.6422C60.9227 10.1828 60.8759 9.80157 60.6472 9.50048ZM33.1693 24.8785C33.8578 24.8785 34.4618 24.4456 34.646 23.8198L38.9957 9.04697H35.6581L31.9079 21.7838H18.5546L22.3048 9.04697H18.9666L14.7679 23.3075C14.637 23.7519 14.6861 24.1249 14.9151 24.4265C15.1443 24.7278 15.4928 24.8785 15.9616 24.8785H33.1693Z" fill="white" />
  <path d="M72.7763 9.03048L76.9989 16.9538L68.1224 24.8749L72.7763 9.03048Z" fill="#27803B" />
  <path d="M69.8163 9.03048L74.0358 16.9538L65.1557 24.8749L69.8163 9.03048Z" fill="#E9661C" />
</svg>