<svg width="90" height="40" viewBox="0 0 90 40" fill="none" xmlns="http://www.w3.org/2000/svg">
<path d="M35.5092 18.8898C35.5099 18.3141 35.4614 17.7395 35.3642 17.1721H27.4217V20.4257H31.9708C31.8777 20.9453 31.6807 21.4407 31.3916 21.8819C31.1025 22.3231 30.7273 22.701 30.2887 22.9928V25.1048H33.0037C34.5933 23.6346 35.5092 21.4605 35.5092 18.8898Z" fill="#4285F4"/>
<path d="M27.4214 27.1451C29.6942 27.1451 31.6079 26.3966 33.0034 25.1059L30.2884 22.994C29.5328 23.5079 28.5595 23.8012 27.4214 23.8012C25.2246 23.8012 23.3601 22.3159 22.6933 20.3142H19.8965V22.4907C20.5975 23.8898 21.6724 25.066 23.0011 25.8879C24.3299 26.7098 25.8603 27.1451 27.4214 27.1451V27.1451Z" fill="#34A853"/>
<path d="M22.6936 20.3129C22.3412 19.264 22.3412 18.1282 22.6936 17.0793V14.9028H19.8968C19.3071 16.0798 19 17.3788 19 18.6961C19 20.0134 19.3071 21.3124 19.8968 22.4894L22.6936 20.3129Z" fill="#FBBC04"/>
<path d="M27.4214 13.5944C28.6225 13.5748 29.783 14.0299 30.6522 14.8616L33.056 12.4505C31.5317 11.0145 29.5124 10.2261 27.4214 10.2506C25.8603 10.2506 24.3299 10.6859 23.0011 11.5078C21.6724 12.3297 20.5975 13.5059 19.8965 14.905L22.6933 17.0815C23.3601 15.0798 25.2246 13.5944 27.4214 13.5944Z" fill="#EA4335"/>
<path d="M43.1195 20.1757V26.1302H41.2362V11.4253H46.231C46.8272 11.4128 47.4199 11.5189 47.9751 11.7374C48.5302 11.9559 49.0367 12.2825 49.4653 12.6983C49.8982 13.0889 50.2428 13.568 50.4758 14.1033C50.7089 14.6386 50.825 15.2177 50.8163 15.8017C50.8287 16.3888 50.7144 16.9717 50.4812 17.5104C50.248 18.0491 49.9015 18.5309 49.4653 18.9227C48.5919 19.758 47.5138 20.1753 46.231 20.1746H43.1195V20.1757ZM43.1195 13.2357V18.3689H46.2778C46.624 18.3792 46.9686 18.3169 47.2894 18.1859C47.6103 18.055 47.9004 17.8584 48.1412 17.6086C48.3807 17.375 48.571 17.0957 48.701 16.787C48.831 16.4784 48.898 16.1467 48.898 15.8117C48.898 15.4766 48.831 15.145 48.701 14.8363C48.571 14.5277 48.3807 14.2483 48.1412 14.0148C47.9034 13.7597 47.6143 13.5582 47.2931 13.4237C46.9718 13.2892 46.6257 13.2247 46.2778 13.2345H43.1195V13.2357Z" fill="white"/>
<path d="M55.1558 15.7375C56.5478 15.7375 57.6465 16.1107 58.4521 16.8569C59.2576 17.6031 59.66 18.6262 59.6593 19.9262V26.1271H57.8579V24.7309H57.776C56.9962 25.8807 55.959 26.4556 54.6645 26.4556C53.5595 26.4556 52.635 26.1271 51.891 25.47C51.534 25.1685 51.2486 24.7908 51.0555 24.3645C50.8625 23.9383 50.7667 23.4742 50.7751 23.0061C50.7751 21.965 51.1674 21.1371 51.9519 20.5222C52.7364 19.9074 53.7837 19.5993 55.0938 19.5977C56.212 19.5977 57.133 19.803 57.8567 20.2137V19.7819C57.8588 19.4628 57.7901 19.1472 57.6556 18.858C57.521 18.5688 57.324 18.3133 57.0788 18.11C56.5808 17.6593 55.9318 17.4134 55.261 17.4212C54.2091 17.4212 53.3766 17.8663 52.7637 18.7564L51.105 17.7087C52.0174 16.3946 53.3676 15.7375 55.1558 15.7375ZM52.7192 23.0472C52.7179 23.2876 52.774 23.5248 52.8826 23.7391C52.9913 23.9534 53.1494 24.1386 53.3438 24.2791C53.7604 24.6078 54.2773 24.7819 54.8072 24.7719C55.6019 24.7706 56.3637 24.4533 56.9256 23.8896C57.5494 23.3006 57.8614 22.6095 57.8614 21.8164C57.2742 21.3471 56.4553 21.1124 55.4049 21.1124C54.6399 21.1124 54.002 21.2974 53.4912 21.6674C52.9754 22.0428 52.7192 22.4992 52.7192 23.0472V23.0472Z" fill="white"/>
<path d="M69.9999 16.0645L63.7114 30.5605H61.7673L64.101 25.4884L59.9659 16.0645H62.013L65.0017 23.2919H65.0426L67.9494 16.0645H69.9999Z" fill="white"/>
</svg>
