<svg width="90" height="40" viewBox="0 0 90 40" fill="none" xmlns="http://www.w3.org/2000/svg">
  <path d="M17.2276 29.1432C22.7903 29.1432 27.265 24.634 27.2221 19.0716C27.1792 13.5092 22.6349 9 17.0722 9C11.5095 9 7.03479 13.5092 7.0777 19.0716C7.12062 24.634 11.6649 29.1432 17.2276 29.1432Z" fill="#5F259F" />
  <path d="M58.6512 24.8652V21.2242C58.6512 20.328 58.3092 19.8799 57.4544 19.8799C57.1125 19.8799 56.7135 19.9359 56.4856 19.9919V25.3134C56.4856 25.4814 56.3146 25.6495 56.1436 25.6495H54.8329C54.6619 25.6495 54.4909 25.4814 54.4909 25.3134V19.0957C54.4909 18.8716 54.6619 18.7036 54.8329 18.6475C55.6877 18.3675 56.5426 18.1994 57.4544 18.1994C59.506 18.1994 60.6458 19.2637 60.6458 21.2242V25.3694C60.6458 25.5374 60.4749 25.7055 60.3039 25.7055H59.506C58.9931 25.7055 58.6512 25.3134 58.6512 24.8652V24.8652ZM63.7803 22.6806L63.7233 23.1848C63.7233 23.857 64.1792 24.2491 64.9201 24.2491C65.49 24.2491 66.0029 24.081 66.5728 23.8009C66.6298 23.8009 66.6867 23.7449 66.7437 23.7449C66.8577 23.7449 66.9147 23.8009 66.9717 23.857C67.0287 23.913 67.1427 24.081 67.1427 24.081C67.2566 24.2491 67.3706 24.4731 67.3706 24.6412C67.3706 24.9213 67.1996 25.2013 66.9717 25.3134C66.3448 25.6495 65.6039 25.8175 64.8061 25.8175C63.8942 25.8175 63.1534 25.5934 62.5835 25.1453C62.0136 24.6412 61.6716 23.969 61.6716 23.1288V20.9442C61.6716 19.2077 62.8114 18.1434 64.7491 18.1434C66.6297 18.1434 67.7126 19.1517 67.7126 20.9442V22.2885C67.7126 22.4566 67.5416 22.6246 67.3706 22.6246H63.7803V22.6806ZM63.7233 21.4483H65.8889V20.8882C65.8889 20.216 65.49 19.7678 64.8061 19.7678C64.1222 19.7678 63.7233 20.16 63.7233 20.8882V21.4483ZM78.2557 22.6806L78.1987 23.1848C78.1987 23.857 78.6546 24.2491 79.3955 24.2491C79.9654 24.2491 80.4783 24.081 81.0482 23.8009C81.1052 23.8009 81.1622 23.7449 81.2191 23.7449C81.3331 23.7449 81.3901 23.8009 81.4471 23.857C81.5041 23.913 81.6181 24.081 81.6181 24.081C81.7321 24.2491 81.846 24.4731 81.846 24.6412C81.846 24.9213 81.6751 25.2013 81.4471 25.3134C80.8202 25.6495 80.0793 25.8175 79.2815 25.8175C78.3697 25.8175 77.6288 25.5934 77.0589 25.1453C76.489 24.6412 76.147 23.969 76.147 23.1288V20.9442C76.147 19.2077 77.2868 18.1434 79.2245 18.1434C81.1052 18.1434 82.188 19.1517 82.188 20.9442V22.2885C82.188 22.4566 82.017 22.6246 81.846 22.6246H78.2557V22.6806ZM78.1987 21.4483H80.3643V20.8882C80.3643 20.216 79.9654 19.7678 79.2815 19.7678C78.5976 19.7678 78.1987 20.16 78.1987 20.8882V21.4483ZM44.6887 25.7055H45.4865C45.6575 25.7055 45.8285 25.5374 45.8285 25.3694V21.2242C45.8285 19.3197 44.8026 18.1994 43.093 18.1994C42.58 18.1994 42.0101 18.3114 41.6682 18.4235V16.3509C41.6682 15.9028 41.2693 15.5107 40.8134 15.5107H40.0155C39.8445 15.5107 39.6736 15.6787 39.6736 15.8468V25.3694C39.6736 25.5374 39.8445 25.7055 40.0155 25.7055H41.3263C41.4972 25.7055 41.6682 25.5374 41.6682 25.3694V20.1039C41.9532 19.9919 42.3521 19.9359 42.637 19.9359C43.4919 19.9359 43.8338 20.328 43.8338 21.2803V24.9213C43.8908 25.3134 44.2328 25.7055 44.6887 25.7055V25.7055ZM53.2941 21.0002V23.0727C53.2941 24.8092 52.0973 25.8735 50.1027 25.8735C48.165 25.8735 46.9113 24.8092 46.9113 23.0727V21.0002C46.9113 19.2637 48.1081 18.1994 50.1027 18.1994C52.0973 18.1994 53.2941 19.2637 53.2941 21.0002V21.0002ZM51.2995 21.0002C51.2995 20.328 50.9006 19.8799 50.1597 19.8799C49.4188 19.8799 49.0199 20.272 49.0199 21.0002V23.0727C49.0199 23.7449 49.4188 24.137 50.1597 24.137C50.9006 24.137 51.2995 23.7449 51.2995 23.0727V21.0002ZM38.5908 20.0479C38.5908 21.8404 37.223 23.0727 35.3993 23.0727C34.9434 23.0727 34.5445 23.0167 34.1456 22.8487V25.3694C34.1456 25.5374 33.9746 25.7055 33.8036 25.7055H32.4928C32.3219 25.7055 32.1509 25.5374 32.1509 25.3694V16.4629C32.1509 16.2389 32.3219 16.0708 32.4928 16.0148C33.3477 15.7347 34.2025 15.5667 35.1144 15.5667C37.166 15.5667 38.5908 16.799 38.5908 18.7036V20.0479ZM36.5391 18.5915C36.5391 17.6953 35.9122 17.2472 35.0574 17.2472C34.5445 17.2472 34.2025 17.4152 34.2025 17.4152V21.1122C34.5445 21.2803 34.7155 21.3363 35.1144 21.3363C35.9692 21.3363 36.5961 20.8321 36.5961 19.9919V18.5915H36.5391ZM75.4062 20.0479C75.4062 21.8404 74.0384 23.0727 72.2148 23.0727C71.7588 23.0727 71.3599 23.0167 70.961 22.8487V25.3694C70.961 25.5374 70.79 25.7055 70.619 25.7055H69.3083C69.1373 25.7055 68.9663 25.5374 68.9663 25.3694V16.4629C68.9663 16.2389 69.1373 16.0708 69.3083 16.0148C70.1631 15.7347 71.018 15.5667 71.9298 15.5667C73.9814 15.5667 75.4062 16.799 75.4062 18.7036V20.0479ZM73.3546 18.5915C73.3546 17.6953 72.7277 17.2472 71.8728 17.2472C71.3599 17.2472 71.018 17.4152 71.018 17.4152V21.1122C71.3599 21.2803 71.5309 21.3363 71.9298 21.3363C72.7847 21.3363 73.4115 20.8321 73.4115 19.9919V18.5915H73.3546Z" fill="#5F259F" />
  <path d="M21.8866 16.5178C21.8866 16.1257 21.5447 15.7896 21.1458 15.7896H19.778L16.6436 12.2607C16.3586 11.9246 15.9027 11.8125 15.4468 11.9246L14.364 12.2607C14.193 12.3167 14.136 12.5407 14.25 12.6528L17.6694 15.8457H12.4833C12.3123 15.8457 12.1984 15.9577 12.1984 16.1257V16.6859C12.1984 17.078 12.5403 17.4141 12.9392 17.4141H13.7371V20.1028C13.7371 22.1194 14.8199 23.2957 16.6436 23.2957C17.2135 23.2957 17.6694 23.2397 18.2393 23.0156V24.8081C18.2393 25.3122 18.6382 25.7044 19.1511 25.7044H19.949C20.1199 25.7044 20.2909 25.5363 20.2909 25.3683V17.3581H21.6017C21.7726 17.3581 21.8866 17.246 21.8866 17.078V16.5178ZM18.2393 21.3352C17.8973 21.5032 17.4414 21.5592 17.0995 21.5592C16.1876 21.5592 15.7317 21.1111 15.7317 20.1028V17.4141H18.2393V21.3352Z" fill="white" />
</svg>