<svg width="90" height="40" viewBox="0 0 90 40" fill="none" xmlns="http://www.w3.org/2000/svg">
  <path fill-rule="evenodd" clip-rule="evenodd" d="M24.2492 7.6513C24.5375 7.01737 25.1013 6.42322 25.6384 6.18539C25.953 6.03995 29.6497 6.01343 45.4721 6.00149C47.0749 6.00149 48.5495 6.00106 49.9063 6.00066C64.3324 5.99641 65.4509 5.99608 65.9693 6.5634C66.0128 6.61101 66.0521 6.66261 66.0946 6.71854L66.0947 6.71868L66.0948 6.71876L66.0948 6.7188L66.0948 6.71882C66.143 6.78213 66.1954 6.85098 66.2629 6.92586C66.5116 7.20303 66.774 7.66544 66.8526 7.94262C67.0491 8.6296 67.0491 31.3591 66.8526 32.0589C66.6823 32.6795 66.0663 33.4059 65.4107 33.7493C64.9259 34 64.4538 34 45.5116 34C33.8317 34 25.9925 33.947 25.7959 33.8811C25.2716 33.6698 24.4985 32.9169 24.2492 32.3489C24.0132 31.8471 24 31.1469 24 20.0001C24 8.8135 24.0132 8.15305 24.2492 7.6513ZM66.1843 7.73042C66.0136 7.4002 65.7122 7.01737 65.5156 6.87193C65.1489 6.59482 65.0962 6.59475 45.6701 6.5678L45.6551 6.56778C29.4396 6.5417 26.0969 6.56778 25.756 6.71322C25.5335 6.81888 25.1794 7.12302 24.9697 7.4002L24.5897 7.88869L24.5502 19.7883L24.5239 31.688L24.8122 32.2693C24.9829 32.5995 25.2843 32.9824 25.4809 33.1278C25.8481 33.405 25.8745 33.405 45.4721 33.405H65.0961L65.5288 33.1013C65.5829 33.0621 65.6337 33.0281 65.6813 32.9962C65.7635 32.9412 65.8363 32.8924 65.9011 32.8342C66.4119 32.3749 66.4148 31.3309 66.4408 22.0489V22.0488V22.0487V22.0486V22.0486V22.0485V22.0484V22.0483V22.0483V22.0482L66.4463 20.1318L66.4726 8.31131L66.1843 7.73042ZM28.0632 20.2596V15.0427H28.0636V9.82631H29.5449L31.0131 9.83957L31.5506 10.5924C31.8389 11.0018 32.7695 12.2829 33.6085 13.4318L35.1424 15.5317V12.679V9.82631H36.5843H38.0261V15.0432V20.2733L36.6233 20.2335L35.2074 20.1938L33.1754 17.3941C32.0609 15.8486 31.0907 14.4884 31.0122 14.3695C30.9205 14.2373 30.8942 15.1484 30.9205 17.2089L30.9732 20.2596H29.5182H28.0632ZM39.9923 15.0428V20.2597H43.3349H46.6776V19.0051V17.7505H44.908H43.1384V17.0241V16.2978H44.7114H46.2844V15.0432V13.7882H44.7114H43.1252L43.1647 13.0221L43.2042 12.2692L44.8821 12.2294L46.5468 12.1897V11.0142V9.82546H43.2696H39.9923V15.0428ZM47.4652 12.1965V11.021V9.83273H51.9219H56.3786V11.0215V12.2102H54.9368H53.495V16.2383V20.2665H51.9228H50.3498L50.3235 16.2649L50.284 12.2761L48.8812 12.2363L47.4652 12.1965ZM44.7122 26.0752V29.5092H45.6955H46.6657L46.7052 28.3735L46.7447 27.2374L47.2036 28.3337L47.6753 29.4429L48.7635 29.4826L49.8517 29.5224L49.183 28.2678L48.5274 27.0132L49.1044 26.0093C49.4322 25.4545 49.6941 24.9793 49.6941 24.9395C49.6941 24.8997 49.2225 24.8864 48.6323 24.913L47.5704 24.9527L47.1641 25.9434L46.7447 26.9341L46.7052 24.7812L46.6788 22.6416H45.6955H44.7122V26.0752ZM50.3614 24.1476C50.0204 23.7118 50.0073 23.3815 50.3482 23.038C50.676 22.7078 51.5935 22.6813 51.9476 22.9987C52.2363 23.2626 52.249 23.9231 51.9607 24.2533C51.8164 24.412 51.5671 24.4911 51.1872 24.4911C50.7418 24.4911 50.5711 24.4248 50.3614 24.1476ZM27.671 26.2873V29.5361L29.6766 29.483C31.3808 29.4433 31.7349 29.4039 32.1149 29.1793C32.7705 28.7833 33.0851 28.2943 33.0982 27.6078C33.1114 26.9473 32.7573 26.4323 32.0759 26.1419C31.7086 25.9832 31.7086 25.9704 31.971 25.8912C32.43 25.7458 32.9148 25.046 32.9148 24.5571C32.9148 23.9762 32.4168 23.3949 31.7613 23.1968C31.473 23.1044 30.4502 23.0381 29.4542 23.0381H27.671V26.2873ZM30.6599 24.5173C30.896 24.7551 30.8433 25.2569 30.5682 25.4151C30.4239 25.481 30.1356 25.5473 29.9127 25.5473C29.5195 25.5473 29.5064 25.534 29.5064 24.9532V24.359H30.0044C30.2795 24.359 30.5682 24.4249 30.6599 24.5173ZM30.8433 27.0928C31.3677 27.568 30.9482 28.1891 30.0698 28.1891H29.5059V27.5287V26.8682H30.0566C30.3716 26.8682 30.6994 26.9606 30.8433 27.0928ZM34.0963 25.1426C34.175 25.0454 34.3224 25.0057 34.617 24.9264C35.3906 24.7023 36.8719 24.7942 37.3041 25.0723C37.9728 25.5214 38.0772 25.8517 38.1299 27.7534L38.1825 29.5098H37.2519C36.4129 29.5098 36.3212 29.4833 36.3212 29.2454C36.3212 29.0076 36.2949 29.0076 35.8491 29.3113C34.7745 30.0509 33.5683 29.4435 33.5683 28.1756C33.5683 27.2247 34.2107 26.7358 35.7052 26.5377C36.3476 26.4586 36.4266 26.3658 36.1642 26.1019C35.9544 25.891 35.194 25.9171 34.5516 26.1417L34.4563 26.1766C34.2099 26.2669 34.0112 26.3397 33.9878 26.3397C33.9615 26.3397 33.9615 26.0625 33.9878 25.7058C34.0076 25.3952 34.0174 25.24 34.0963 25.1426ZM35.6394 28.2941C36.033 28.3604 36.3212 28.1093 36.3212 27.7132C36.3212 27.3697 36.0983 27.3171 35.5608 27.5412C35.1545 27.6999 35.2067 28.2415 35.6394 28.2941ZM41.619 24.9395C41.3829 25.0452 41.1341 25.23 41.0551 25.3754C40.9371 25.5867 40.924 25.5734 40.9108 25.2432V24.8865H39.9275H38.9442V27.1976V29.5088H39.9275H40.8981L40.9376 27.9765C40.977 26.6689 41.0161 26.405 41.2127 26.2861C41.3702 26.1804 41.5009 26.1804 41.6716 26.2861C41.855 26.405 41.8945 26.6689 41.934 27.9765L41.9735 29.5088H42.9559H43.9524L43.8998 27.6861C43.8603 26.5106 43.7817 25.7445 43.6637 25.5071C43.3232 24.8206 42.4579 24.5832 41.619 24.9395ZM55.3041 25.2565C55.5006 25.0717 55.7499 24.8869 55.8547 24.8471C56.2088 24.7149 56.8249 24.7547 57.1663 24.9254C57.7827 25.2295 57.953 25.8237 57.953 27.752V29.5083H56.9697H55.9995L55.96 27.8837L55.9599 27.8787C55.9206 26.286 55.9202 26.2728 55.6059 26.233C55.0684 26.1539 54.9372 26.4974 54.9372 28.0822V29.5088H54.0198H53.1023V27.1976V24.8865H54.0198C54.9241 24.8865 54.9372 24.8865 54.9372 25.2432V25.6L55.3041 25.2565ZM59.7598 25.0266C58.5145 25.6871 58.2394 28.0641 59.2749 29.1074C59.9041 29.7413 61.0055 29.7944 61.5952 29.2263L61.8835 28.9619V29.3054C61.8835 29.4902 61.7391 29.7939 61.5425 29.9924C61.2411 30.2961 61.1362 30.3226 60.4021 30.2696C59.9563 30.2298 59.4847 30.1639 59.3666 30.0981C59.1569 30.0189 59.1306 30.0848 59.1306 30.732C59.1306 31.6037 59.2223 31.6563 60.5724 31.6435C61.7523 31.6435 62.4995 31.3924 63.0761 30.8116C63.7184 30.1644 63.8496 29.5304 63.8496 27.008V24.8816H62.8663C62.0537 24.8816 61.883 24.9214 61.883 25.0929C61.883 25.2645 61.8177 25.2512 61.5421 25.0271C61.0967 24.6836 60.4021 24.6836 59.7598 25.0266ZM61.7259 26.3608C61.9225 26.5588 61.9357 27.576 61.7523 27.9324C61.6079 28.1967 61.1626 28.2626 60.8611 28.0645C60.5728 27.8797 60.507 26.9156 60.7562 26.5323C60.9919 26.1756 61.464 26.0964 61.7259 26.3608ZM50.2174 29.509V27.1978V24.8867H51.2007H52.184V27.1978V29.509H51.2007H50.2174Z" fill="white" />
</svg>