<svg width="90" height="40" viewBox="0 0 90 40" fill="none" xmlns="http://www.w3.org/2000/svg">
  <path fill-rule="evenodd" clip-rule="evenodd" d="M44.4496 11.2793H47.1282C47.4559 11.2793 47.7204 11.567 47.7199 11.9203V24.0433C47.7199 26.5396 46.0769 28.3174 43.7687 28.3174H39.3891C39.0617 28.3174 38.797 28.0313 38.797 27.6767V24.7795C38.797 24.4265 39.0614 24.1388 39.3891 24.1388L43.3064 24.1237L43.3186 24.1213C43.33 24.1188 43.3406 24.116 43.3518 24.1141C43.6605 24.0719 43.8988 23.7897 43.8988 23.4447C43.8988 23.0956 43.6557 22.8121 43.3432 22.7739C43.2903 22.7629 41.5591 22.7629 41.5591 22.7629C39.2521 22.7629 37.6079 20.9838 37.6079 18.4888V11.9201C37.6079 11.567 37.8724 11.2793 38.2 11.2793H40.879C41.2052 11.2793 41.4711 11.567 41.4711 11.9201L41.4812 17.9025C41.4812 18.2789 41.7622 18.5814 42.1099 18.5814H43.2312C43.5752 18.5814 43.8524 18.2844 43.8586 17.9134V11.9201C43.8586 11.567 44.1233 11.2793 44.4496 11.2793ZM15.5808 11.2788H21.4358C23.5803 11.2788 25.0747 12.8943 25.075 15.2243V19.313C25.075 21.643 23.5806 23.253 21.4361 23.253H18.8733L18.8632 27.658C18.8632 28.0123 18.5973 28.2987 18.2711 28.2987H15.5419C15.2419 28.2906 15 28.0058 15 27.6567V14.8032C15 14.7972 15.0003 14.7909 15.0006 14.7844C15.0009 14.7776 15.0012 14.7706 15.0012 14.7636L15.0006 14.7554L15 14.7472V11.9073C15 11.5608 15.2596 11.2788 15.5808 11.2788ZM20.5728 19.0593C20.9192 19.0593 21.2002 18.7539 21.2002 18.3791V16.1554C21.2002 15.779 20.9192 15.4764 20.5728 15.4764H18.873V19.0606L20.5728 19.0593ZM28.172 11.2952H31.8887C34.9254 11.2952 36.1955 12.9791 36.1955 15.6458V26.6432C36.1955 27.5227 35.4887 28.237 34.6167 28.237H29.7594C27.4449 28.237 26.0174 26.5724 26.0174 24.233V20.8629C26.0174 18.5096 27.6779 16.8341 30.0089 16.8341H31.7616C32.0287 16.8068 32.2479 16.5669 32.2794 16.2384V15.8648C32.2479 15.5199 32.026 15.299 31.7464 15.2514H28.2071C27.8594 15.2514 27.5772 14.9652 27.5772 14.6148V13.0701L27.5778 13.0579L27.5784 13.0457L27.5778 13.0347L27.5772 13.0238V11.8964C27.5772 11.5652 27.8431 11.2952 28.172 11.2952ZM32.3046 23.9541C32.3097 23.92 32.3147 23.8846 32.3147 23.8477L32.3145 21.3704C32.3145 21.0171 32.0323 20.7323 31.6832 20.7323H30.5681C30.2205 20.7323 29.9395 21.0158 29.9383 21.3662L29.9371 21.3704V21.8256L29.9359 23.2803C29.9359 23.2874 29.9371 23.2941 29.9371 23.3009V23.8477C29.9371 24.1994 30.2208 24.4858 30.5684 24.4858H31.6834C31.9618 24.4858 32.1962 24.3019 32.2794 24.0483C32.2899 24.0176 32.2983 23.9861 32.3046 23.9541Z" fill="white" />
  <path fill-rule="evenodd" clip-rule="evenodd" d="M71.1215 11.1126C72.8676 11.1126 74.3546 12.3246 74.9001 14.0123C75.0174 14.3721 75.103 14.7225 75.103 15.5461V27.6226C75.103 27.9782 74.8371 28.2646 74.5108 28.2646H71.8322C71.5059 28.2646 71.24 27.9785 71.24 27.6226L71.2299 16.3939C71.2311 15.8403 70.8809 15.3646 70.3012 15.3099H69.8074C69.6172 15.3292 69.4521 15.3932 69.3148 15.4886C69.0364 15.6876 68.8777 16.023 68.8789 16.3939L68.8801 27.684C68.865 28.0235 68.6078 28.2961 68.2916 28.2961H65.6129C65.2867 28.2961 65.0208 28.0084 65.0208 27.6525L65.0107 16.4088C65.0107 16.0706 64.8811 15.7623 64.6479 15.562C64.4981 15.4324 64.3077 15.3466 64.0822 15.3247H63.5884C63.0489 15.3768 62.7076 15.7912 62.6648 16.2956C62.6609 16.3325 62.6597 16.3692 62.6597 16.4088L62.6609 27.7082C62.6217 28.0203 62.376 28.2617 62.0774 28.2617H59.3988C59.0713 28.2617 58.8066 27.9756 58.8066 27.6197V11.8797C58.8066 11.5241 59.0711 11.2377 59.3988 11.2377H62.0774C62.3885 11.2377 62.6405 11.4981 62.6645 11.8295V12.1622C63.3651 11.508 64.2772 11.1126 65.2752 11.1126H65.3117C66.4457 11.1126 67.4689 11.6237 68.1983 12.4445C68.9265 11.6237 69.9497 11.1126 71.085 11.1126H71.1215ZM55.2336 11.2788H56.7658C57.0922 11.2788 57.3581 11.5665 57.3577 11.9198V14.8183C57.3577 15.1713 57.0918 15.459 56.7655 15.459H55.2649L55.2637 27.7498C55.2637 28.1002 55.0016 28.3838 54.679 28.3838H52.0306C51.7068 28.3838 51.4447 28.1002 51.4447 27.7498L51.4471 15.459H49.8306C49.5031 15.459 49.2372 15.1713 49.2372 14.8183V11.9195C49.2372 11.6141 49.4363 11.3605 49.701 11.2965C49.7426 11.2869 49.7854 11.2788 49.8308 11.2788H50.1321C51.9778 11.1498 52.6043 10.1956 53.1673 9.33791C53.5501 8.75482 53.9036 8.21637 54.591 8.01223C54.6239 8.00546 54.6578 8 54.6932 8C54.9918 8 55.2336 8.2617 55.2336 8.58479V11.2788Z" fill="#00BAF2" />
</svg>