<svg width="90" height="40" viewBox="0 0 90 40" fill="none" xmlns="http://www.w3.org/2000/svg">
<path fill-rule="evenodd" clip-rule="evenodd" d="M27.1416 8.5L18.0263 13.022V14.534H18.764V15.577H35.5785V14.534H36.3096V13.022L27.1416 8.5ZM35.5785 26.945H18.764V27.995H18V29.5H36.2832V27.995H35.5785V26.945ZM19.4951 26.539V24.803H20.1998V17.201H19.4951V16.214H20.1998H22.8211H23.5324V17.201H22.8211V24.803H23.5324V26.539H19.4951ZM25.1197 24.803V26.539H29.1636V24.803H28.4523V17.201H29.1636V16.214H28.4523H25.831H25.1197V17.201H25.831V24.803H25.1197ZM30.7969 26.539V24.803H31.5082V17.201H30.7969V16.214H31.5082H34.1295H34.8409V17.201H34.1295V24.803H34.8409V26.539H30.7969Z" fill="#07B167"/>
<path d="M43.8857 19.3674C45.1719 19.3674 45.9695 18.6842 45.9695 17.5927C45.9695 16.772 45.3682 16.1575 44.5497 16.093V16.0586C45.1886 15.9598 45.6814 15.3926 45.6814 14.7136C45.6814 13.764 44.9715 13.1667 43.8398 13.1667H41.2174V19.3674H43.8857ZM42.4785 14.1335H43.5141C44.1029 14.1335 44.4411 14.4171 44.4411 14.9156C44.4411 15.4399 44.057 15.745 43.3846 15.745H42.4785V14.1335ZM42.4785 18.4006V16.6001H43.535C44.2783 16.6001 44.6833 16.9095 44.6833 17.4896C44.6833 18.0826 44.2908 18.4006 43.5642 18.4006H42.4785Z" fill="white"/>
<path d="M47.9113 19.4405C48.4709 19.4405 49.0263 19.1526 49.2768 18.6627H49.3019V19.3674H50.4795V16.2005C50.4795 15.2723 49.732 14.6621 48.5836 14.6621C47.3977 14.6621 46.6585 15.2766 46.6126 16.1704H47.7276C47.786 15.8309 48.0742 15.5989 48.5293 15.5989C48.9887 15.5989 49.281 15.8481 49.281 16.2778V16.5829L48.1535 16.6516C47.0385 16.7204 46.4122 17.206 46.4122 18.0439C46.4122 18.8733 47.0594 19.4405 47.9113 19.4405ZM48.3122 18.5338C47.8988 18.5338 47.6232 18.3189 47.6232 17.9752C47.6232 17.6486 47.8821 17.438 48.3372 17.4036L49.281 17.3435V17.6787C49.281 18.1771 48.8425 18.5338 48.3122 18.5338Z" fill="white"/>
<path d="M51.2687 19.3674H52.4881V16.7247C52.4881 16.1274 52.8347 15.7149 53.3817 15.7149C53.9287 15.7149 54.2044 16.0586 54.2044 16.6602V19.3674H55.4237V16.3981C55.4237 15.3195 54.8641 14.675 53.8703 14.675C53.1813 14.675 52.7094 15.0101 52.4714 15.5817H52.4463V14.7609H51.2687V19.3674Z" fill="white"/>
<path d="M57.4615 16.6087H57.4448V13.1667H56.2255V19.3674H57.4448V17.8462L57.7622 17.4939L59.0442 19.3674H60.4473L58.6559 16.7376L60.3638 14.7609H58.9816L57.4615 16.6087Z" fill="white"/>
<path d="M43.9191 28.2345V23.1038H45.6647V22.0338H40.9167V23.1038H42.658V28.2345H43.9191Z" fill="white"/>
<path d="M45.6897 28.2345H46.9091V25.6605C46.9091 25.0117 47.2599 24.6335 47.8612 24.6335C48.0366 24.6335 48.2036 24.6636 48.3038 24.7066V23.6022C48.2203 23.5764 48.0992 23.555 47.9572 23.555C47.4311 23.555 47.0511 23.8729 46.8924 24.4574H46.8673V23.628H45.6897V28.2345Z" fill="white"/>
<path d="M50.0243 28.3076C50.5839 28.3076 51.1393 28.0197 51.3898 27.5298H51.4149V28.2345H52.5925V25.0675C52.5925 24.1394 51.845 23.5292 50.6966 23.5292C49.5107 23.5292 48.7715 24.1437 48.7256 25.0375H49.8406C49.899 24.698 50.1872 24.466 50.6423 24.466C51.1017 24.466 51.394 24.7152 51.394 25.1449V25.45L50.2665 25.5187C49.1515 25.5875 48.5252 26.0731 48.5252 26.911C48.5252 27.7404 49.1724 28.3076 50.0243 28.3076ZM50.4252 27.4009C50.0118 27.4009 49.7362 27.186 49.7362 26.8423C49.7362 26.5157 49.9951 26.3051 50.4502 26.2707L51.394 26.2106V26.5458C51.394 27.0442 50.9555 27.4009 50.4252 27.4009Z" fill="white"/>
<path d="M53.3817 28.2345H54.6011V25.5918C54.6011 24.9945 54.9477 24.582 55.4947 24.582C56.0417 24.582 56.3174 24.9257 56.3174 25.5273V28.2345H57.5367V25.2652C57.5367 24.1866 56.9771 23.5421 55.9833 23.5421C55.2943 23.5421 54.8224 23.8772 54.5844 24.4488H54.5593V23.628H53.3817V28.2345Z" fill="white"/>
<path d="M58.2341 24.9816C58.2341 25.6734 58.6726 26.1203 59.537 26.3094L60.3012 26.4727C60.7396 26.5758 60.8941 26.7133 60.8941 26.9583C60.8941 27.2591 60.6102 27.4524 60.1508 27.4524C59.6664 27.4524 59.3866 27.2376 59.3115 26.8337H58.1213C58.2007 27.7404 58.9148 28.3334 60.1508 28.3334C61.3034 28.3334 62.1093 27.7361 62.1093 26.8294C62.1093 26.1547 61.7251 25.7766 60.7897 25.5746L60.0255 25.407C59.5745 25.3082 59.4075 25.1492 59.4075 24.9129C59.4075 24.6078 59.6873 24.4101 60.1091 24.4101C60.5601 24.4101 60.8315 24.6636 60.8691 25.0375H61.9924C61.9673 24.1351 61.2574 23.5292 60.1091 23.5292C58.969 23.5292 58.2341 24.105 58.2341 24.9816Z" fill="white"/>
<path d="M63.0364 28.2345H64.2557V24.5734H65.1159V23.6495H64.2265V23.3444C64.2265 23.0178 64.4019 22.8373 64.8028 22.8373C64.9239 22.8373 65.045 22.8459 65.1326 22.8631V22.0338C64.9907 22.0037 64.7359 21.9779 64.5104 21.9779C63.4498 21.9779 63.0364 22.399 63.0364 23.3014V23.6495H62.4267V24.5734H63.0364V28.2345Z" fill="white"/>
<path d="M68.5986 26.8251C68.4859 27.1774 68.1435 27.4052 67.6966 27.4052C67.0744 27.4052 66.6694 26.954 66.6694 26.2965V26.2192H69.7554V25.8367C69.7554 24.4359 68.9327 23.5292 67.6298 23.5292C66.3061 23.5292 65.4709 24.4831 65.4709 25.9528C65.4709 27.4267 66.2977 28.3334 67.6758 28.3334C68.7824 28.3334 69.5841 27.7275 69.7178 26.8251H68.5986ZM67.6424 24.4574C68.1852 24.4574 68.5569 24.8613 68.5819 25.45H66.6819C66.7237 24.8742 67.1078 24.4574 67.6424 24.4574Z" fill="white"/>
<path d="M70.3859 28.2345H71.6053V25.6605C71.6053 25.0117 71.956 24.6335 72.5574 24.6335C72.7328 24.6335 72.8998 24.6636 73 24.7066V23.6022C72.9165 23.5764 72.7954 23.555 72.6534 23.555C72.1273 23.555 71.7473 23.8729 71.5886 24.4574H71.5635V23.628H70.3859V28.2345Z" fill="white"/>
</svg>
